<?xml version="1.0" encoding="UTF-8"?>
<svg id="Laag_2" data-name="Laag 2" xmlns="http://www.w3.org/2000/svg" viewBox="0 0 81 81">
  <g id="Laag_1-2" data-name="Laag 1">
    <path d="m.7.6c-.4.4-.7,6.9-.7,14.5,0,13.3.1,13.8,2.6,16.8,3.4,4.1,6.2,3.9,9.7-.4,3.6-4.6,6.8-4.6,11.3-.1,3.1,3.1,3.4,3.9,3.4,9.2-.1,3.6-.6,6.7-1.5,7.8-1.6,2-6.5,5.6-7.8,5.6-.4,0-2.8-1.9-5.3-4.2-4.4-4.1-4.7-4.2-7.2-2.7-4.5,2.5-5.2,5.2-5.2,20.1v13.8h14.9c14.7,0,14.9,0,17.5-2.6,3.5-3.5,3.3-5.3-.9-9.4-3.8-3.7-4.3-6.3-1.9-9.8,2.3-3.3,6.7-5.2,11.9-5.2,3.7,0,5.2.6,8.1,3.3,5,4.5,4.9,8-.1,12.3-4.2,3.5-4.2,5.9.2,9.4,2.3,1.8,4,2,16.9,2h14.4v-14.4c0-12.9-.2-14.6-2-16.9-3.5-4.4-5.9-4.4-9.4-.2-4,4.8-7.6,5-11.8.7-5.4-5.3-4.9-15.6,1-20.2,3.6-2.9,6.4-2.5,10.2,1.5,4.1,4.2,5.9,4.4,9.4.9,2.6-2.6,2.6-2.8,2.6-17.5V0h-13.5c-15,0-18.2.9-20.3,5.5-1.2,2.5-1,3,2.8,7.1,2.2,2.4,4,4.6,4,4.9s-.7,1.9-1.5,3.5c-2.3,4.5-5.3,6-11.8,6-5.4,0-6.2-.3-9.3-3.4-4.5-4.5-4.5-7.7.1-11.3,4.2-3.3,4.4-6.1.9-9.4C30,.6,29.1.5,15.7.2,7.9,0,1.1.2.7.6Z"/>
  </g>
</svg>