<?xml version="1.0" encoding="UTF-8"?>
<svg id="Laag_2" data-name="Laag 2" xmlns="http://www.w3.org/2000/svg" viewBox="0 0 107.5 80">
  <g id="Laag_1-2" data-name="Laag 1">
    <path d="m26.5,14.3c0,12.7-.2,14.6-1.8,16-2.5,2.3-2.9,2.2-6.6-1.8-4.6-4.9-8.3-4.8-13.9.4-4.2,3.9-4.2,4-4.2,11.1s0,7.2,4.2,11.1c5.6,5.2,9.3,5.3,13.9.4,3.7-4,4.5-4.2,6.7-1.7,1.4,1.5,1.7,4.2,1.7,16v14.2h15c14.7,0,15.2-.1,17.5-2.5,3.4-3.3,3.1-5.3-1-9.1-2.2-2-3.5-4.1-3.5-5.7,0-3.6,4.9-8.4,9.4-9.3,11.2-2.1,20.3,8.4,12.8,14.8-4,3.3-4.5,4.5-3.1,7,2.3,4.4,3.7,4.7,19.2,4.8h14.7v-14.1c0-7.7-.5-14.9-1-16-.6-1-2.4-2.6-4-3.4-2.9-1.5-3-1.4-6.1,2-4,4.4-6,5-9.8,3-3.9-1.9-6.1-6.2-6.1-11.5s2.2-9.6,6.1-11.5c3.8-2,5.8-1.4,9.8,3,3.1,3.4,3.2,3.5,6.1,2,1.6-.8,3.4-2.4,4-3.4.5-1.1,1-8.3,1-16V0h-14.7c-15.5.1-16.9.4-19.2,4.8-1.4,2.5-.9,3.7,3.1,7,7.5,6.4-1.6,16.9-12.8,14.8-4.5-.9-9.4-5.7-9.4-9.3,0-1.6,1.3-3.7,3.5-5.7,4.1-3.8,4.4-5.8,1-9.1-2.3-2.4-2.8-2.5-17.5-2.5h-15v14.3Z"/>
  </g>
</svg>