<?xml version="1.0" encoding="UTF-8"?>
<svg id="Laag_2" data-name="Laag 2"
  xmlns="http://www.w3.org/2000/svg" viewBox="0 0 108 108">
  <g id="Laag_1-2" data-name="Laag 1">
    <path d="m0,40.5v40.5h13.5c15,0,18.8-1.1,20.6-5.7.8-2.2.5-3.1-3-6.8-4.6-4.9-4.5-6.9.1-11.6,2.6-2.6,3.6-2.9,9-2.9s6.3.3,9.4,3.4c4.4,4.4,4.4,7.4-.1,11.5-4.3,3.9-4.4,6.2-.4,9.5,3,2.5,3.4,2.6,17.5,2.6h14.4v-14.4c0-14.1-.1-14.5-2.6-17.5-3.3-4-5.2-3.9-9.4.4-4.3,4.5-7.2,4.5-11.6.1-3.1-3.1-3.4-3.9-3.4-9.4s.3-6.4,2.9-9c4.7-4.7,6.6-4.7,11.8.1,4.3,4,4.6,4.1,7.1,2.6,4.5-2.5,5.2-5.2,5.2-20.2V0h-14.4c-14.1,0-14.5.1-17.5,2.6-4,3.3-3.9,5.2.4,9.4,4.3,4.1,4.4,6.9.6,11.2-2.4,2.7-3.6,3.2-8.8,3.6-5.8.4-6.3.3-9.8-3-5-4.6-5.1-8.1-.1-12.1,4.4-3.5,4.5-5,.7-8.8l-2.9-2.9H0v40.5Z"/>
  </g>
</svg>