<?xml version="1.0" encoding="UTF-8"?>
<svg id="Laag_2" data-name="Laag 2" xmlns="http://www.w3.org/2000/svg" viewBox="0 0 81 108">
  <g id="Laag_1-2" data-name="Laag 1">
    <path d="m0,15c0,14.7.1,15.2,2.5,17.5,3.3,3.4,5.5,3.1,9.5-1,3.9-4,6-4.3,10-1.5,6,4.3,6.7,14.8,1.4,20-4.9,4.7-6.8,4.7-11.6.1-2.2-2.3-4.5-4.1-5-4.1s-2.3,1.3-3.9,2.9l-2.9,2.9v29.2h13.8c10.8,0,14.2.3,16,1.6,3,2,2.8,3-1.3,7.5-3.9,4.4-4.3,7.1-1.6,11.3,3,4.6,7,6.6,12.9,6.6,6.2,0,10.2-1.8,13.1-5.9,3.3-4.6,2.8-8.7-1.6-12.7l-3.7-3.4,2.4-2.5c2.3-2.4,2.7-2.5,16.7-2.5h14.3v-13.5c0-15-.9-18.2-5.5-20.3-2.5-1.2-3-1-7.1,2.8-2.4,2.2-4.7,4-5.1,4-1.8,0-7.3-4-8.4-6.1-.6-1.3-1.2-4.8-1.2-7.8,0-5,.3-5.7,3.6-8.8,4.7-4.2,7.1-4.2,11.1.2,3.9,4.2,6.4,4.4,9.7.9,2.3-2.5,2.4-3.1,2.4-17.2V.5l-14.1-.3c-14-.3-14.2-.2-17.3,2.4-4,3.4-3.9,6,.4,10,4.4,4,4.4,6.7.1,11-3.1,3.1-3.9,3.4-9.3,3.4-6.5,0-9.5-1.5-11.8-6-.8-1.6-1.5-3.2-1.5-3.5s1.8-2.5,4.1-5c3.9-4.2,4-4.4,2.5-7.2C31.3.8,28.3,0,13.5,0H0v15Z"/>
  </g>
</svg>