<?xml version="1.0" encoding="UTF-8"?>
<svg id="Laag_2" data-name="Laag 2" xmlns="http://www.w3.org/2000/svg" viewBox="0 0 108 107.17">
  <g id="Laag_1-2" data-name="Laag 1">
    <path d="m27,13.4c0,14.6-.3,16.1-3.2,17.7-1.6.8-2.6.4-5.9-2.5-4.3-4-6.5-4.4-11-2.1-4.4,2.3-6.9,7.1-6.9,13.3s2,10.6,6.3,13.2c4.6,2.8,7.2,2.5,11.6-1.5,2.1-1.9,4.1-3.5,4.4-3.5.4,0,1.5,1,2.7,2.2,1.8,2,2,3.5,2,16v13.8h13c18.3,0,22.4,2.4,15.5,9.3-3.8,3.8-4.3,6.3-2,10.7,2,3.9,6.3,6.8,10.5,7,8.7.5,10.1.1,14.1-3.9,5.3-5.3,5.3-9.1.2-14.4l-3.8-3.8,2.8-2.5c2.7-2.3,3.4-2.4,16.8-2.4h13.9v-13.9c0-13.5-.1-14-2.6-17-3.4-4-6-3.9-10,.4-1.8,2-4.1,3.5-5.4,3.5-3.1,0-9-6.1-9.2-9.7-.4-8.3.8-11.5,5.5-14.3,4.4-2.7,5-2.6,9.3,2,2.1,2.2,4.2,4,4.7,4s2.4-1.5,4.3-3.4l3.4-3.4V0h-14.9c-13.5,0-15.1.2-17.5,2.1-3.5,2.8-3.3,5.8.9,9.8,1.9,1.8,3.5,4.1,3.5,5.2s-1.5,3.6-3.4,5.7c-3.3,3.5-3.8,3.7-9.5,3.7-5.4,0-6.4-.3-9-3-4.8-4.9-4.8-6.8-.1-11.9,4.3-4.7,4.4-5.2.7-9.4-2-2.1-2.8-2.2-16.9-2.2h-14.8v13.4Z"/>
  </g>
</svg>