<?xml version="1.0" encoding="UTF-8"?>
<svg id="Laag_2" data-name="Laag 2" xmlns="http://www.w3.org/2000/svg" viewBox="0 0 81.1 107.91">
  <g id="Laag_1-2" data-name="Laag 1">
    <path d="m.3,40.2l.3,40.3,14.5.3c11.6.2,14.8.6,16.2,1.9,2.4,2.2,2.3,2.6-1.7,6.6s-4.5,7.3-1.9,11.5c2.4,4,6.1,6.4,10.9,7,5.8.6,10.8-1.2,14.5-5.4,4.2-4.8,4-8.7-.5-13-4-3.7-4.2-4.5-1.7-6.7,1.5-1.4,4.2-1.7,16-1.7h14.2v-15c0-14.7-.1-15.2-2.5-17.5-3.3-3.4-5.3-3.1-9.1,1-1.7,1.9-4.1,3.5-5.3,3.5-7.5,0-12.6-11.3-8.6-19,3.5-6.8,9.9-8,14.1-2.5,3.2,4.2,5.2,4.4,8.8.9,2.6-2.6,2.6-2.8,2.6-17.5V0h-14.4c-12.8,0-14.6.2-16.8,2-4.2,3.3-4.1,5.6.3,10,4.4,4.3,4.6,5.1,2.3,9-4.8,8-18.7,8.1-22.9,0-2.1-4-2-4.5,2-8.9,4.2-4.6,4.4-6.4.9-9.6C29.9.1,29.3,0,14.9,0H0l.3,40.2Z"/>
  </g>
</svg>