<?xml version="1.0" encoding="UTF-8"?>
<svg id="Laag_2" data-name="Laag 2" xmlns="http://www.w3.org/2000/svg" viewBox="0 0 80.5 81">
  <g id="Laag_1-2" data-name="Laag 1">
    <path d="m0,15c0,14.7.1,15.2,2.5,17.5,3.3,3.4,5.6,3.1,9.2-1,3.9-4.4,7.1-4.5,11.2-.5,5,5,5.4,14.5.8,18.7-5.6,5.1-7.9,5-13-.6-1.5-1.7-3.1-3.1-3.6-3.1s-2.3,1.2-4,2.6l-3.1,2.6v29.8h80.5l-.3-14.2c-.2-15.2-.9-17.9-4.9-19.7-2.3-1-2.9-.8-6.9,2.9-2.4,2.2-4.7,4-5.1,4-.5,0-2.3-.9-4.1-2-7.2-4.4-8-15.3-1.6-20.9,4.5-4,6.9-3.9,10.8.4,3.8,4.1,6.4,4.4,9.4,1.2,2.1-2.2,2.2-3.3,2.2-17.5V0h-13.9c-13.5,0-14,.1-17,2.6-4,3.4-3.9,6,.4,10,4.4,4,4.4,6.7.1,11-3.1,3.1-3.9,3.4-9.3,3.4-6.5,0-9.5-1.5-11.8-6-2.1-4-2-4.4,2.5-8.6,2.2-2.1,4-4.2,4-4.7s-1.5-2.4-3.4-4.3l-3.4-3.4H0v15Z"/>
  </g>
</svg>