<?xml version="1.0" encoding="UTF-8"?>
<svg id="Laag_2" data-name="Laag 2" xmlns="http://www.w3.org/2000/svg" viewBox="0 0 107.91 80.5">
  <g id="Laag_1-2" data-name="Laag 1">
    <path d="m27,13.8c0,12.5-.2,14-2,16-1.2,1.2-2.3,2.2-2.7,2.2-.3,0-2.3-1.6-4.4-3.5-4.3-3.9-6.5-4.3-11-2-4.7,2.5-6.9,7-6.9,14.4,0,6.2.1,6.5,4,10.3,5.5,5.1,9,5.1,14.3,0l3.8-3.7,2.5,2.8c2.3,2.7,2.4,3.4,2.4,16.5v13.7l40.5-.3,40.4-.2-.2-14.4c-.2-13.8-.3-14.6-2.6-17-3.3-3.5-6.1-3.3-9.8.9-3.8,4.3-6.2,4.4-10.6.5-7.3-6.4-4.9-19.7,4.2-22.5,1.9-.6,3.1.1,6.7,3.6l4.4,4.3,2.7-2c4.7-3.5,5.3-5.8,5.2-20.2l-.1-13.2h-15.2c-14.6,0-15.3.1-17.4,2.3-3.1,3.3-2.7,5.8,1.3,9.7,1.9,1.9,3.5,4.2,3.5,5.2s-1.5,3.5-3.4,5.6c-3.3,3.5-3.8,3.7-9.6,3.7s-6.3-.2-9.6-3.7c-1.9-2.1-3.4-4.5-3.4-5.3,0-.9,1.7-3.4,3.9-5.8,4-4.4,4.1-5.8.8-9.5-1.9-2.1-2.8-2.2-16.9-2.2h-14.8v13.8Z"/>
  </g>
</svg>