<?xml version="1.0" encoding="UTF-8"?>
<svg id="Laag_2" data-name="Laag 2" xmlns="http://www.w3.org/2000/svg" viewBox="0 0 81 81">
  <g id="Laag_1-2" data-name="Laag 1">
    <path d="m0,40.5v40.5h81v-14.9c0-14.7,0-14.9-2.6-17.5-3.5-3.5-5.4-3.3-9.1.9-3.6,4-6.8,4.5-10.5,1.5-6-4.6-6.4-15.3-.9-20.2,4.5-4,8.3-3.7,11.7.7,3.2,4.2,5.2,4.4,8.7.7,2.7-2.8,2.7-2.9,2.7-17.5V0h-14.4c-12.9,0-14.6.2-16.9,2-4.4,3.5-4.4,5.7.2,9.9,2.3,2.1,4.1,4.6,4.1,5.6,0,.9-1.8,3.5-4,5.7-4,4-4.1,4-10.2,3.6-5.5-.4-6.4-.8-9-3.8-3.7-4.5-3.5-6.9.7-11s4.4-5.9.9-9.4C29.8,0,29.6,0,14.9,0H0v40.5Z"/>
  </g>
</svg>