<?xml version="1.0" encoding="UTF-8"?>
<svg id="Laag_2" data-name="Laag 2" xmlns="http://www.w3.org/2000/svg" viewBox="0 0 108.04 81">
  <g id="Laag_1-2" data-name="Laag 1">
    <path d="m0,14.9c0,14.7,0,14.9,2.6,17.5,3.5,3.5,5.3,3.3,9.4-.9,4.1-4.3,6.9-4.4,11.2-.6,2.7,2.4,3.2,3.6,3.6,8.8.4,5.8.3,6.3-3,9.8-4.6,5.1-8.1,5.1-12.4,0-3.5-4.2-5.9-4.2-9.4.2-1.8,2.3-2,4-2,16.9v14.4h29.2l2.9-2.9c3.8-3.8,3.7-5.4-.6-8.7-4.8-3.6-4.8-7.3,0-12.1,3.4-3.4,3.7-3.5,9.7-3.1,5.3.4,6.5.9,8.9,3.6,3.8,4.3,3.7,7.1-.6,11.2-4.3,4.2-4.4,6.1-.4,9.4,3,2.5,3.4,2.6,17.5,2.6h14.4v-14.3c0-12.7.2-14.6,1.8-16,2.5-2.3,3.3-2.2,6.5,1.3,3.8,4,6.9,4.7,10.8,2.4,9-5.3,10.7-17.6,3.3-24.9-2.8-2.8-4.3-3.5-7.3-3.5-3.2,0-4.4.6-7,3.5-3.2,3.7-5.3,3.8-7.1.4-.6-1-1-8.1-1-15.8V0h-13.7c-15,0-17.7.7-20.3,5.2-1.4,2.6-1.3,2.9,2.3,6.6,4.5,4.6,4.6,7.1.6,11.7-2.9,3.3-3.4,3.5-9.4,3.5s-6.6-.3-9.4-3.1c-4.2-4.1-4-7.4.5-12,4.2-4.4,4-7-.9-10-2.8-1.6-5.1-1.9-16.9-1.9H0v14.9Z"/>
  </g>
</svg>