<?xml version="1.0" encoding="UTF-8"?>
<svg id="Laag_2" data-name="Laag 2" xmlns="http://www.w3.org/2000/svg" viewBox="0 0 134.5 80">
  <g id="Laag_1-2" data-name="Laag 1">
    <path d="m27,13.8c0,10.8-.3,14.2-1.6,16-2,3-3,2.8-7.5-1.3-4.4-3.9-7.1-4.3-11.3-1.6-4.6,3-6.6,7-6.6,12.9,0,6.4,2,10.6,6.3,13.2,4.8,3,8,2.6,11.8-1.5,3.9-4.1,4.2-4.2,6.9-1.5,1.8,1.8,2,3.3,2,16v14h29.8l2.6-3.1c1.4-1.7,2.6-3.5,2.6-4,0-.4-1.5-2.2-3.4-3.9-4.4-4.1-4.9-6.3-2.2-10.2,4.4-6.7,14.8-7.5,20.6-1.7,4,4.1,3.9,7.3-.5,11.3-4.1,3.8-4.4,5.8-1,9.1,2.3,2.4,2.8,2.5,17.5,2.5h15v-14.3c0-12.7.2-14.6,1.8-16,2.5-2.3,2.9-2.2,6.6,1.8,4.6,4.9,8.3,4.8,13.9-.4,4.2-3.9,4.2-4,4.2-11.1s0-7.2-4.2-11.1c-5.6-5.2-9.3-5.3-13.9-.4-3.7,4-4.5,4.2-6.7,1.7-1.4-1.5-1.7-4.2-1.7-16V0h-15c-14.7,0-15.2.1-17.5,2.5-3.4,3.3-3.1,5.3,1,9.1,4.3,3.9,4.5,7.1.7,11.2-5.5,5.9-16.3,5.1-20.8-1.6-2.7-3.9-2.2-6.1,2.2-10.2,1.9-1.7,3.4-3.5,3.4-3.9,0-.5-1.2-2.3-2.6-4l-2.6-3.1h-29.8v13.8Z"/>
  </g>
</svg>