<?xml version="1.0" encoding="UTF-8"?>
<svg id="Laag_2" data-name="Laag 2" xmlns="http://www.w3.org/2000/svg" viewBox="0 0 107.88 81">
  <g id="Laag_1-2" data-name="Laag 1">
    <path d="m0,40.5v40.5h14.9c14.7,0,14.9,0,17.5-2.6,3.5-3.5,3.3-5.4-.9-9.1-4-3.6-4.5-6.8-1.5-10.5,4.6-6,15.3-6.4,20.2-.9,4,4.5,3.7,8.3-.7,11.7-4.2,3.2-4.4,4.9-.8,8.6l2.7,2.8h29.6v-14.3c0-12.7.2-14.6,1.8-16,2.5-2.3,2.9-2.2,7.3,1.8,5.1,4.6,7.9,4.5,13.1-.4,3.8-3.5,4.2-4.3,4.6-9.8.5-7.1-1.3-11.4-6.1-14.3-4.9-3-8.4-2.6-12.3,1.5-3.4,3.7-5.6,3.8-7.4.4-.6-1-1-8.1-1-15.8V0h-13.7c-11.9,0-14.2.3-17,1.9-4.9,3-5.1,5.6-.9,10,4.2,4.3,4.6,7.4,1.3,11.4-4.3,5.4-14.6,5.6-19.8.5-4-4.1-3.8-7.6.6-11.7,3.8-3.4,4.1-4.2,2.5-7.2C31.8,1,27.9,0,13.5,0H0v40.5Z"/>
  </g>
</svg>