<?xml version="1.0" encoding="UTF-8"?>
<svg id="Laag_2" data-name="Laag 2" xmlns="http://www.w3.org/2000/svg" viewBox="0 0 108 108">
  <g id="Laag_1-2" data-name="Laag 1">
    <path d="m.6.9c-.3.4-.5,7.2-.3,14.9.2,13.3.3,14.2,2.6,16.6,3.3,3.5,5.8,3.3,9.7-.9,3.9-4.3,6.3-4.4,10.7-.5,6.2,5.4,5.6,16.1-1.2,20.7-1.9,1.3-3.8,2.3-4.3,2.3s-2.8-1.8-5.2-4c-4-3.7-4.6-4-6.9-2.9-4.5,2.1-5.7,6.3-5.7,20.8v13.1h14.3c13,0,14.5.2,16.5,2,1.2,1.2,2.2,2.4,2.2,2.8s-1.6,2.2-3.5,4.1c-4.1,3.8-4.5,7-1.5,11.8,2.6,4.3,6.8,6.3,13.2,6.3,5.9,0,9.9-2,12.9-6.6,2.7-4.2,2.3-6.9-1.6-11.3-4.1-4.5-4.3-5.5-1.3-7.5,1.8-1.3,5.2-1.6,16-1.6h13.8v-13.8c0-10.8.3-14.2,1.6-16,2.1-3,3.6-2.8,7.7,1.3s6.6,4.3,11.4,1.4c4.6-2.9,6.3-6.6,6.3-14,0-5.8-.2-6.3-3.9-10-5.3-5.3-9.4-5.4-14.5-.2l-3.7,3.8-2.5-2.8c-2.3-2.7-2.4-3.4-2.4-16.8V0h-13.6c-14.8,0-18.1.9-20.4,5.8-1,2.3-.7,2.9,2.9,6.5,4.6,4.4,4.7,4.7,2.6,8.7-2.3,4.5-5.3,6-11.8,6-5.4,0-6.2-.3-9.3-3.4-4.3-4.3-4.3-7,.1-11,4.3-4,4.4-6.6.4-10C28.9.1,28.4,0,15,0,7.4,0,.9.4.6.9Z"/>
  </g>
</svg>