<?xml version="1.0" encoding="UTF-8"?>
<svg id="Laag_2" data-name="Laag 2" xmlns="http://www.w3.org/2000/svg" viewBox="0 0 134.78 107.21">
  <g id="Laag_1-2" data-name="Laag 1">
    <path d="m27.58,13.3c.3,12.3.1,13.5-1.8,16-1.2,1.5-2.5,2.7-3,2.7-.4,0-2.4-1.6-4.3-3.5-3.8-3.8-6.3-4.3-10.7-2-9.2,4.7-10.5,18.3-2.5,25.4,4.9,4.3,8.7,4.1,13.2-.4,1.9-1.9,3.9-3.5,4.3-3.5.5,0,1.8,1.2,3,2.7,1.9,2.5,2.1,3.7,1.8,16l-.3,13.3h13.7c13.1,0,13.8.1,16.5,2.4l2.8,2.5-3.7,3.8c-5.2,5.3-5.2,9.1.1,14.4,4,4,5.9,4.5,14.1,3.9,4.2-.3,8.5-3.1,10.5-7,2.3-4.4,1.8-6.9-2-10.7-1.9-1.9-3.5-3.9-3.5-4.3,0-.5,1.2-1.8,2.6-2.9,2.4-1.9,4-2.1,16-2.1h13.4v-13.8c0-13.4.1-13.9,2.5-16.2l2.4-2.3,4.1,3.7c4.4,3.9,6.6,4.4,11,2.1,5.1-2.6,7-6.1,7-12.7,0-7-1.9-11.1-6.3-13.8-4.6-2.8-7.2-2.5-11.6,1.5-2.1,1.9-4.1,3.5-4.4,3.5-.4,0-1.5-1-2.7-2.2-1.8-2-2-3.5-2-16V0h-14.8c-14.1,0-14.9.1-16.9,2.2-3.7,4.2-3.6,4.7.6,9.3,2.3,2.5,4.1,5.1,4.1,6,0,.8-1.5,3.2-3.4,5.3-3.3,3.5-3.8,3.7-9.6,3.7s-6.3-.2-9.6-3.7c-1.9-2.1-3.4-4.6-3.4-5.7s1.6-3.4,3.5-5.2c4.1-3.9,4.4-6.7,1.2-9.7-2.2-2.1-3.3-2.2-17.3-2.2h-14.9l.3,13.3Z"/>
  </g>
</svg>