<?xml version="1.0" encoding="UTF-8"?>
<svg id="Laag_2" data-name="Laag 2" xmlns="http://www.w3.org/2000/svg" viewBox="0 0 107.78 108.1">
  <g id="Laag_1-2" data-name="Laag 1">
    <path d="m0,40.6v40.5h13.6c7.4,0,14.3.4,15.3,1,3.4,1.8,3.3,4-.4,8.1-4,4.4-4.3,7-1.5,11.6,2.6,4.3,6.8,6.3,13,6.3s10.4-2,13-6.3c3-4.8,2.6-7.9-1.7-12.1l-3.7-3.6,2.4-2.5c2.3-2.4,2.7-2.5,16.2-2.5h13.8v-13c0-18.3,2.4-22.4,9.3-15.5,3.8,3.8,6.3,4.3,10.7,2,9.2-4.7,10.5-18.3,2.5-25.4-5-4.4-8.8-4.2-13.8.6l-3.8,3.8-2.5-2.8c-2.3-2.7-2.4-3.4-2.4-16.8V0l-14.4.3c-13.7.3-14.6.4-17,2.7-3.5,3.3-3.3,5.8.9,9.7,4.2,3.8,4.4,6.2.9,10.3-6.2,7.4-17.9,6-22.3-2.7-1.4-2.7-.3-5.1,4.2-9.2l3.2-2.8-2.1-2.9C29.9.7,27.6.1,13.3.1H0v40.5Z"/>
  </g>
</svg>