<?xml version="1.0" encoding="UTF-8"?>
<svg id="Laag_2" data-name="Laag 2" xmlns="http://www.w3.org/2000/svg" viewBox="0 0 108 81">
  <g id="Laag_1-2" data-name="Laag 1">
    <path d="m.4,1.4c-.3.8-.4,7.5-.2,14.9.3,12.7.4,13.7,2.7,16.1,3.3,3.5,5.6,3.3,9.5-.9,4.1-4.4,6.6-4.4,11.2-.2,3.2,2.9,3.6,3.7,3.6,8.8,0,3-.5,6.5-1.1,7.8-1.1,2.1-6.6,6.1-8.4,6.1-.4,0-2.7-1.8-5.1-4-4.1-3.8-4.6-4-7.1-2.8-4.6,2.1-5.5,5.3-5.5,20.3v13.5h81v-13.8c0-10.8.3-14.2,1.6-16,2-3,3-2.8,7.5,1.3,4.4,3.9,7.1,4.3,11.3,1.6,4.6-3,6.6-7,6.6-12.9,0-8.8-4.9-15.2-11.7-15.2-2.8,0-4.3.8-7,3.7l-3.4,3.8-2.5-2.8c-2.3-2.7-2.4-3.4-2.4-16.8V0h-13.5c-15,0-18.2.9-20.3,5.5-1.2,2.5-1,3,2.8,7.1,2.2,2.4,4,4.6,4,4.9s-.7,1.9-1.5,3.5c-2.3,4.5-5.3,6-11.8,6-5.4,0-6.2-.3-9.3-3.4-4.3-4.3-4.3-7,.1-11.2,4.3-4,4.4-6.5.4-9.8C28.9.1,28.4,0,14.9,0,3.7,0,.8.3.4,1.4Z"/>
  </g>
</svg>