<?xml version="1.0" encoding="UTF-8"?>
<svg id="Laag_2" data-name="Laag 2" xmlns="http://www.w3.org/2000/svg" viewBox="0 0 134.9 80">
  <g id="Laag_1-2" data-name="Laag 1">
    <path d="m26.9,14.3c0,12.7-.2,14.6-1.8,16-2.5,2.3-2.9,2.2-6.6-1.8-4.6-4.9-8.5-4.8-13.6.3-2.4,2.4-4.1,5.2-4.5,7.5-1.2,6,.3,10.7,4.5,14.9,5,5.1,8.8,5.2,13.7.3,4-4,4.4-4.1,6.6-1.7,1.4,1.5,1.7,4.2,1.7,16v14.2h81v-13.8c0-12.5.2-14,2-16,1.2-1.2,2.4-2.2,2.8-2.2.5,0,2.3,1.6,4.2,3.5,3.9,4,7,4.4,11.7,1.5,4.3-2.6,6.3-6.8,6.3-13s-2-10.4-6.3-13c-4.6-2.8-7.2-2.5-11.6,1.5-4.1,3.7-6.3,3.8-8.1.4-.6-1-1-7.9-1-15.3V0h-14.8c-14.1,0-14.9.1-16.9,2.2-3.7,4.2-3.6,4.7.6,9.3,2.3,2.5,4.1,4.8,4.1,5.3,0,1.8-4.7,7.7-7,8.9-5.7,2.9-14.2.6-17.3-4.6-2.5-4.2-2.1-5.9,1.8-9.4,4.1-3.6,4.4-5.9,1-9.2-2.3-2.4-2.8-2.5-17.5-2.5h-15v14.3Z"/>
  </g>
</svg>