<?xml version="1.0" encoding="UTF-8"?>
<svg id="Laag_2" data-name="Laag 2" xmlns="http://www.w3.org/2000/svg" viewBox="0 0 107.97 81">
  <g id="Laag_1-2" data-name="Laag 1">
    <path d="m0,40.5v40.5h81v-14.5c0-13.4.2-14.7,2.1-16.6l2.1-2.1,3.9,3.8c4.5,4.4,8.1,4.8,12.9,1.4,8.3-5.9,7.9-19.9-.9-25.7-4.6-3.1-6.4-2.9-11,1.2-4.4,4-5.2,4.2-7.4,1.7-1.4-1.5-1.7-4.2-1.7-16V0h-14.4c-14.1,0-14.5.1-17.5,2.6-4,3.3-3.9,5.2.4,9.4,4.5,4.3,4.5,7.2.1,11.6-3.1,3.1-4,3.4-9.1,3.4s-6-.3-9.1-3.4c-4.5-4.5-4.5-7.8.1-11.9,4.3-3.7,4.3-5,.6-8.8l-2.9-2.9H0v40.5Z"/>
  </g>
</svg>