<?xml version="1.0" encoding="UTF-8"?>
<svg id="Laag_2" data-name="Laag 2" xmlns="http://www.w3.org/2000/svg" viewBox="0 0 81 81">
  <g id="Laag_1-2" data-name="Laag 1">
    <path d="m0,14.6v14.6l2.9,2.9c3.7,3.6,5.4,3.7,8.1.1,4.6-5.8,8.2-6,13-.5,2.6,2.9,3,4.2,3,8.9,0,5-.3,5.9-3.4,9-4.4,4.4-7.3,4.4-11.6-.1-4.2-4.3-6.1-4.4-9.4-.4-2.5,3-2.6,3.4-2.6,17.5v14.4h13.8c14.9,0,17.6-.7,20.2-5.2,1.4-2.6,1.3-2.9-2.3-6.6-4.6-4.7-4.8-7.9-.6-12.1,2.8-2.8,3.7-3.1,9.4-3.1s6.5.3,9.4,3.2c4.2,4.3,4,7.3-.6,12-3.6,3.7-3.7,4-2.3,6.6,2.6,4.5,5.3,5.2,20.3,5.2h13.7V0h-29.8l-2.6,3.1c-3.4,4-3.3,4.9.9,8.6,4.4,3.9,4.5,7.1.6,11.5-2.8,3.1-3.3,3.3-9.6,3.3s-6.8-.2-9.6-3.3c-3.9-4.4-3.8-7.6.6-11.5,4.2-3.7,4.4-5.5.7-9C29.4,0,29.3,0,14.7,0H0v14.6Z"/>
  </g>
</svg>