<?xml version="1.0" encoding="UTF-8"?>
<svg id="Laag_2" data-name="Laag 2" xmlns="http://www.w3.org/2000/svg" viewBox="0 0 108.09 81">
  <g id="Laag_1-2" data-name="Laag 1">
    <path d="m27.09,14.3c0,13.9-.1,14.4-2.4,16.6l-2.4,2.3-3.5-3.8c-3.9-4.2-7.8-4.9-12.2-2-9.1,5.9-8.7,20.9.7,26.6,4.6,2.8,6.2,2.5,10.7-1.5,4.4-4,5.2-4.2,7.4-1.7,1.4,1.5,1.7,4.2,1.7,16v14.2h29.2l2.9-2.9c3.7-3.8,3.7-5.1-.6-9-4.5-4.1-4.6-7.2-.1-11.7,3.1-3.1,4-3.4,9.1-3.4s6,.3,9.1,3.4c4.4,4.4,4.4,7.3-.1,11.6-4.3,4.2-4.4,6.1-.4,9.4,3,2.5,3.4,2.6,17.5,2.6h14.4V0h-29.2l-2.9,2.9c-1.6,1.6-2.9,3.6-2.9,4.3,0,.8,1.6,2.9,3.5,4.8,4.7,4.5,4.6,7.8,0,11.9-3.1,2.7-4.3,3.1-9.3,3.1-5.3,0-6.1-.3-9-3.3-4.2-4.3-4.1-7.2.5-11.9,3.6-3.7,3.7-4,2.3-6.6C58.49.7,55.79,0,40.89,0h-13.8v14.3Z"/>
  </g>
</svg>