<?xml version="1.0" encoding="UTF-8"?>
<svg id="Laag_2" data-name="Laag 2" xmlns="http://www.w3.org/2000/svg" viewBox="0 0 81 107.83">
  <g id="Laag_1-2" data-name="Laag 1">
    <path d="m0,14.4c0,14.1.1,14.5,2.6,17.5,3.3,4,5.2,3.9,9.4-.4,4.3-4.5,7.2-4.5,11.6-.1,3,3,3.4,4,3.4,8.5,0,6.4-1.5,9.6-5.6,12.2-3.8,2.3-6.1,1.6-10.2-3.2-3-3.6-4.6-3.6-8.3,0l-2.9,2.9v29.2h14.3c14,0,14.4.1,16.7,2.5l2.3,2.5-3.8,3.3c-4.4,3.8-5,7.7-2.1,12.2,3.1,4.8,7.4,6.6,14.3,6.3,6.7-.4,10-2.5,12.9-8,2.1-4,1.8-5.4-2.1-9.7-4.1-4.5-4.3-5.5-1.3-7.5,1.8-1.3,5.2-1.6,16-1.6h13.8V0h-13.7c-15,0-17.7.7-20.3,5.2-1.4,2.6-1.3,2.9,2.3,6.6,4.6,4.7,4.8,7.9.6,12.1-3,3.1-4.9,3.5-12.4,3.2-3.6-.2-9.5-6-9.5-9.3,0-1.2,1.7-3.9,3.7-6,3.6-3.7,3.7-4,2.3-6.6C31.4.7,28.7,0,13.8,0H0v14.4Z"/>
  </g>
</svg>