<?xml version="1.0" encoding="UTF-8"?>
<svg id="Laag_2" data-name="Laag 2" xmlns="http://www.w3.org/2000/svg" viewBox="0 0 107.5 107.14">
  <g id="Laag_1-2" data-name="Laag 1">
    <path d="m26.5,14.3c0,12.7-.2,14.6-1.8,16-2.5,2.3-3,2.2-6.9-1.8-4.7-4.8-8.1-4.7-13.6.4-4.2,3.9-4.2,4-4.2,11.1s0,7.2,4.2,11.1c5.6,5.2,9.3,5.3,13.9.4,3.7-4,4.5-4.2,6.7-1.7,1.4,1.5,1.7,4.2,1.7,16v14.2h14c13.9,0,14.1,0,16.7,2.7l2.7,2.6-3.1,2.6c-4.4,3.7-5.7,7.4-3.8,11,2.2,4.3,7.2,8.1,10.8,8.2,9.4.3,13.4-1.2,16.7-6.6,2.8-4.5,2.1-7.7-2.6-12l-3.5-3.2,2-2.4c1.8-2.3,2.5-2.4,16.5-2.7l14.6-.3V0h-14.9c-14.7,0-14.9,0-17.5,2.6-3.4,3.5-3.3,4.7.9,8.5,2.4,2.2,3.5,4.1,3.5,5.9,0,9.3-15.2,13.3-22.2,5.8-3.8-4.1-3.6-7.3.7-11.2,4.1-3.8,4.4-5.8,1-9.1-2.3-2.4-2.8-2.5-17.5-2.5h-15v14.3Z"/>
  </g>
</svg>