<?xml version="1.0" encoding="UTF-8"?>
<svg id="Laag_2" data-name="Laag 2" xmlns="http://www.w3.org/2000/svg" viewBox="0 0 80 81">
  <g id="Laag_1-2" data-name="Laag 1">
    <path d="m0,14.4c0,7.9.3,15.2.6,16.1.4.8,2,2.3,3.6,3.1,2.9,1.5,3,1.4,7.3-2.5,2.5-2.3,4.8-4.1,5.3-4.1s2.4,1,4.3,2.3c6.8,4.6,7.4,15.3,1.2,20.7-4.4,3.9-6.8,3.8-10.7-.5-3.7-4-5.3-4.3-9-1.4l-2.6,2v30.9h80V0h-14.3c-15.2,0-17.9.7-19.6,5.4-.7,1.7-.1,3,3,6.3,4.4,4.8,4.5,5.4,2.3,9.3-4.8,8.1-18.7,8.1-22.9-.1-2-3.7-1.4-5.6,3-9.9,3.3-3.2,3.3-3.4,1.9-6.1-.8-1.6-2.3-3.3-3.3-3.9-1.1-.5-8.3-1-16-1H0v14.4Z"/>
  </g>
</svg>