<?xml version="1.0" encoding="UTF-8"?>
<svg id="Laag_2" data-name="Laag 2"
  xmlns="http://www.w3.org/2000/svg" viewBox="0 0 107 81">
  <g id="Laag_1-2" data-name="Laag 1">
    <path d="m27.2,14.6c-.3,14-.4,14.7-2.7,16.5l-2.4,2-3.6-3.4c-4.9-4.7-6.7-5.1-11-2.6C1.8,30.3.1,33.4,0,40.4c-.1,7.2,2.2,11.4,7.9,14,4.4,2.1,6.9,1.4,11-3.1l3.1-3.4,2.5,1.9c2.3,1.9,2.4,2.5,2.7,16.6l.3,14.6h79.9V0h-13.5c-15,0-18.2.9-20.4,5.6-1.1,2.6-1,3,2.8,6.5,4.5,4.1,4.7,4.8,2.7,8.8-2.3,4.3-5.8,6.1-12.2,6.1-5,0-5.9-.3-9-3.4-4.3-4.3-4.3-7,.1-11.2,4.3-4,4.4-6.5.4-9.8-3-2.5-3.5-2.6-16.9-2.6h-13.9l-.3,14.6Z"/>
  </g>
</svg>