<?xml version="1.0" encoding="UTF-8"?>
<svg id="Laag_2" data-name="Laag 2" xmlns="http://www.w3.org/2000/svg" viewBox="0 0 81 107.2">
  <g id="Laag_1-2" data-name="Laag 1">
    <path d="m31.8,1.5c-3.1,1.7-6.8,7.3-6.8,10.4,0,1.1,1.6,3.8,3.5,6,4.1,4.5,4.3,5.5,1.3,7.5-1.8,1.3-5.2,1.6-16,1.6H0v14.3c0,15.2.7,17.9,5.4,19.6,1.7.7,3,.1,6.3-3,2.4-2.2,5-3.9,5.9-3.9s3.4,1.7,5.5,3.9c3.4,3.4,3.9,4.4,3.9,8.6,0,5.4-2.1,9.5-6,11.9-4,2.3-5.2,2.1-9.4-2.3-3.8-3.9-4-3.9-6.7-2.5-1.6.8-3.3,2.3-3.9,3.3-.5,1.1-1,8.3-1,16v14.1h14.8c15.4-.1,16.8-.4,19.1-4.8,1.1-2.1.8-2.8-2.8-6.7-2.3-2.5-4.1-4.8-4.1-5.3s1-2.4,2.3-4.3c4.6-6.8,15.3-7.4,20.7-1.2,3.9,4.4,3.8,6.8-.5,10.7-4.1,3.8-4.4,6.4-1.2,9.4,2,1.9,3.4,2.1,17.2,2.3l15,.1v-14.5c0-14-.1-14.6-2.4-17.1-3.3-3.5-5.8-3.3-9.7.9-1.8,2-4.1,3.5-5.4,3.5-3.1,0-9-6.1-9.2-9.7-.4-8.3.8-11.5,5.5-14.3,4.4-2.7,5-2.6,9.3,2,2.1,2.2,4.2,4,4.7,4s2.4-1.5,4.3-3.4l3.4-3.4v-28.2h-13.9c-13.4,0-14.1-.1-16.8-2.4l-2.8-2.5,3.8-3.7c5.2-5.1,5.1-9.2-.2-14.5-3.7-3.7-4.1-3.9-10.2-3.9-3.6.1-7.6.7-9.1,1.5Z"/>
  </g>
</svg>