<?xml version="1.0" encoding="UTF-8"?>
<svg id="Laag_2" data-name="Laag 2"
  xmlns="http://www.w3.org/2000/svg" viewBox="0 0 108 108">
  <g id="Laag_1-2" data-name="Laag 1">
    <path d="m60.4.89c-3.2,1.3-8.4,7.8-8.4,10.5,0,1.4,1.5,4.2,3.5,6.4,4,4.4,4.2,5.2,1.7,7.4-1.5,1.4-4.2,1.7-16,1.7h-14.2v13.8c0,10.8-.3,14.2-1.6,16-2,3-4,2.8-7-.7-4.5-5.4-10.2-4.7-15.8,1.9-2.2,2.7-2.6,4.1-2.6,9.5s.4,6.8,2.7,9.6c1.5,1.7,4.2,3.8,6,4.6,2.9,1.1,3.7,1.1,6.2-.2,1.6-.8,3.8-2.7,5-4.2l2.1-2.8,2.5,2.8c2.4,2.7,2.5,3.3,2.5,16.8v13.9h14.3c15.6,0,17.9-.7,19.8-5.9.9-2.3.7-2.9-1.9-5.1-4.9-4.2-5.6-6.5-3.3-10.4,2.6-4.1,5.8-5.6,12.2-5.6,4.5,0,5.5.4,8.5,3.4,4.5,4.5,4.4,7.5-.1,11.5-4.3,3.7-4.4,6.2-.4,9.5,3,2.5,3.4,2.6,17.5,2.6h14.5l-.3-15.1-.3-15.1-2.8-2.4c-3.7-3.2-5.1-3-8.8,1.1-4.2,4.5-7.5,4.6-11.6.3-3.1-3.2-3.8-6.1-3.4-13,.1-3.5,5.5-8.8,8.9-8.8,1.7,0,4,1.3,6.4,3.7,3.7,3.6,4,3.7,6.6,2.3,4.5-2.6,5.2-5.3,5.2-20.3v-13.7h-14.1c-7.7,0-14.8-.4-15.8-1-3.4-1.8-3.3-4,.4-7.4,2.6-2.5,3.5-4.2,3.5-6.6,0-3.8-3.1-8.5-7-10.5-3.1-1.6-11.2-1.9-14.6-.5Z"/>
  </g>
</svg>