<?xml version="1.0" encoding="UTF-8"?>
<svg id="Laag_2" data-name="Laag 2" xmlns="http://www.w3.org/2000/svg" viewBox="0 0 81 107.69">
  <g id="Laag_1-2" data-name="Laag 1">
    <path d="m35.2.69c-3.8.9-6.8,3.4-8.8,7.2-2.2,4.2-1.7,6.8,2.1,10.4,4,3.7,4.2,4.5,1.7,6.7-1.5,1.4-4.2,1.7-16,1.7H0v81h29.8l2.6-3.1c1.4-1.7,2.6-3.4,2.6-3.8s-1.8-2.6-4-4.9c-2.2-2.2-4-4.8-4-5.6,0-.9,1.5-3.2,3.3-5.2,5.6-6.1,16.1-5.8,20.7.6,2.8,4,2.5,6.1-1.5,10-4.1,4-4.4,6.2-1,9.5,2.3,2.4,2.8,2.5,17.5,2.5h15v-13.5c0-15-.9-18.2-5.5-20.3-2.5-1.2-3-1-7.1,2.8-2.4,2.2-4.7,4-5.1,4-1.6,0-7.2-3.9-8.1-5.7-1-1.9-1.5-5.7-1.3-10.7.1-3.4,5.9-9.6,9.1-9.6,1.3,0,3.6,1.5,5.4,3.5,4,4.3,6.6,4.4,10,.4,2.6-3.1,2.7-3.3,2.4-17.3l-.3-14.1-14.6-.3c-13.2-.2-14.8-.5-16.4-2.3-1.8-1.9-1.8-2,1.8-5.7,4.8-4.9,4.9-8.7.6-13.6C47.7.39,42.4-1.01,35.2.69Z"/>
  </g>
</svg>