<?xml version="1.0" encoding="UTF-8"?>
<svg id="Laag_2" data-name="Laag 2" xmlns="http://www.w3.org/2000/svg" viewBox="0 0 81 134.67">
  <g id="Laag_1-2" data-name="Laag 1">
    <path d="m33.4.89c-3.6,1.4-7.4,6.9-7.4,10.5,0,2.5.9,4.1,3.7,6.9l3.7,3.6-2.4,2.5c-2.3,2.4-2.7,2.5-16.7,2.5H0v13.6c0,14.9.9,18.1,5.9,20.4,2.3,1,2.8.9,5.2-1.8,4.2-4.7,6.4-5.5,9.9-3.7,5,2.6,6.6,6.4,6.2,14.8-.2,3.6-6.1,9.7-9.2,9.7-1.3,0-3.6-1.5-5.4-3.5-3.9-4.2-6.4-4.4-9.7-.9-2.3,2.5-2.4,3.1-2.4,17v14.5l14.2.2c13.3.2,14.4.4,16.5,2.4l2.2,2.3-3.7,3.8c-4.8,4.9-4.9,8.7-.6,13.7,7.1,8,20.7,6.7,25.4-2.5,2.3-4.5,1.8-7-2.1-10.6-2.5-2.4-3.4-3.9-2.9-5.3,1-3.3,5.4-4.2,18.9-3.9l12.6.3v-14.8c0-14.4-.1-14.9-2.5-17.2-3.3-3.4-5.5-3.1-9.5,1-3.8,3.9-4.8,4.2-9,2-4.3-2.2-6.3-6.8-5.7-12.9.4-4.1,1-5.5,4.1-8.3,1.9-1.8,4.3-3.3,5.2-3.3.8,0,3.3,1.8,5.5,3.9,4.5,4.4,6.7,4.4,9.9.3,1.8-2.2,2-4,2-16.8v-14.4h-13.8c-10.8,0-14.2-.3-16-1.6-3-2-2.8-3,1.3-7.5,1.9-2.2,3.5-4.9,3.5-6,0-3.2-3.8-8.7-7-10.4-3.1-1.6-12.2-1.9-15.6-.5Z"/>
  </g>
</svg>