<?xml version="1.0" encoding="UTF-8"?>
<svg id="Laag_2" data-name="Laag 2" xmlns="http://www.w3.org/2000/svg" viewBox="0 0 107.5 134.75">
  <g id="Laag_1-2" data-name="Laag 1">
    <path d="m59.9,1.15c-4.1,1.8-7.4,6.6-7.4,10.6,0,2.4.9,4.1,3.5,6.6,3.7,3.4,3.8,5.6.4,7.4-1,.6-8.1,1-15.8,1h-14.1v14.5c0,13.6-.1,14.5-2.2,16.5l-2.2,2-3.4-3.5c-4.5-4.6-7.3-5.2-11.6-2.6C1.8,56.95.1,60.35,0,67.25c0,7,2.4,11.3,7.9,13.9,4.1,1.9,6,1.4,10.7-3.1l3.7-3.5,2.1,2.1c1.9,1.9,2.1,3.2,2.1,16.6v14.5h13.9c15,0,16.6.3,18.1,3,.8,1.4.2,2.6-2.5,5.3-4,4-4.5,7.6-1.6,12.3,5.4,8.9,20.5,8.4,26.1-.8,2.8-4.6,2.5-6.2-1.5-10.7-4-4.4-4.2-5.2-1.7-7.4,1.5-1.4,4.2-1.7,16-1.7h14.2v-14.9c0-14.7,0-14.9-2.6-17.5-3.5-3.5-5.4-3.3-9.1.9-3.9,4.4-7.1,4.5-11.5.6-3.1-2.8-3.3-3.3-3.3-9.6s.2-6.8,3.3-9.6c4.4-3.9,7.6-3.8,11.6.6,3.9,4.2,5.1,4.3,8.8.8l2.8-2.7v-29.6h-14.3c-12.7,0-14.6-.2-16-1.8-2.3-2.5-2.2-2.9,1.9-7.4,3-3.4,3.5-4.5,3-7.2-.4-1.7-2.2-4.6-4.1-6.5-3-3-4.1-3.5-9.2-3.8-3.5-.2-7,.2-8.9,1.1Z"/>
  </g>
</svg>