<?xml version="1.0" encoding="UTF-8"?>
<svg id="Laag_2" data-name="Laag 2" xmlns="http://www.w3.org/2000/svg" viewBox="0 0 81 134.56">
  <g id="Laag_1-2" data-name="Laag 1">
    <path d="m35.4.56c-1.8.6-4.6,2.6-6.3,4.5-4.3,5-4.2,8.8.6,13.7,3.6,3.7,3.6,3.8,1.8,5.7-1.6,1.8-3.2,2.1-16.4,2.3l-14.6.3-.3,40.2-.2,40.3h14.3c14,0,14.4.1,16.7,2.5l2.3,2.5-3.6,3.5c-4.4,4.2-4.9,8.7-1.6,12.9,3,3.9,7.1,5.6,13.1,5.6s9.9-2,12.9-6.6c2.7-4.2,2.3-6.9-1.6-11.3-4.1-4.5-4.3-5.5-1.3-7.5,1.8-1.3,5.2-1.6,16-1.6h13.8v-29.2l-2.9-2.9c-1.6-1.6-3.4-2.9-3.9-2.9s-2.7,1.8-5,4c-2.2,2.2-4.8,4-5.6,4-.9,0-3.3-1.5-5.2-3.3-3.1-2.8-3.7-4.2-4.1-8.3-.6-6.1,1.4-10.7,5.7-12.9,4.2-2.2,5.2-1.9,9,2,4,4.1,6.2,4.4,9.5,1,2.4-2.3,2.5-2.8,2.5-17.5v-15h-14.3c-12.7,0-14.6-.2-16-1.8-2.3-2.5-2.2-2.9,1.8-6.6,2.1-2,3.5-4.3,3.5-5.7,0-3.1-3.2-8.3-6.3-10.3-3-2-10.3-2.8-14.3-1.6Z"/>
  </g>
</svg>