<?xml version="1.0" encoding="UTF-8"?>
<svg id="Laag_2" data-name="Laag 2" xmlns="http://www.w3.org/2000/svg" viewBox="0 0 81 108">
  <g id="Laag_1-2" data-name="Laag 1">
    <path d="m30.9,2.7c-6.5,5.5-6.8,11.3-.6,16.5l3.2,2.6-2.4,2.6c-2.4,2.6-2.7,2.6-16.8,2.6H0v13.5c0,15,.9,18.2,5.7,20.4,2.6,1.2,3,1.1,5.4-1.7,4.2-4.7,6.4-5.5,9.8-3.7,4.6,2.3,6.1,5.2,6.1,11.8,0,5.4-.3,6.2-3.4,9.3-4.3,4.3-7,4.3-11.2-.1-4-4.3-6.5-4.4-9.8-.4-2.6,3.1-2.7,3.3-2.4,17.3l.3,14.1,40.3.3,40.2.2v-14.8c0-14.4-.1-15-2.5-17.6-3.2-3.5-5.4-3.3-9.5.9-3.8,3.9-5.9,4.3-9.6,1.9-3.5-2.4-5.4-6.5-5.4-12,0-4.1.5-5.1,3.9-8.5,2.1-2.2,4.6-3.9,5.6-3.9.9,0,3.4,1.8,5.5,3.9,4.4,4.4,6.7,4.5,10,.3,1.8-2.2,2-4,2-16.8v-14.4h-13.8c-10.8,0-14.2-.3-16-1.6-3-2.1-2.8-3.6,1.4-7.8,3.1-3.1,3.5-4.1,3-6.7-1.4-7.1-6.8-10.9-15.4-10.9-5.1,0-6.5.4-9.3,2.7Z"/>
  </g>
</svg>