<?xml version="1.0" encoding="UTF-8"?>
<svg id="Laag_2" data-name="Laag 2"
  xmlns="http://www.w3.org/2000/svg" viewBox="0 0 108 108">
  <g id="Laag_1-2" data-name="Laag 1">
    <path d="m60.31,1.45c-4,1.8-7.7,7-7.7,10.9,0,2.2,1,3.9,3.6,6.3,3.8,3.5,4,5.6.6,7.4-1,.6-8.1,1-15.8,1h-14.1v14.5c0,13.5-.1,14.6-2.2,16.4l-2.1,2.1-4.3-4c-5-4.6-6.8-4.9-11.5-1.7-8.8,5.8-9.1,19.8-.7,26,4.3,3.2,8.3,2.6,12.6-1.6l3.8-3.7,2.2,2c2.1,2,2.2,2.9,2.2,16.5v14.5h81v-29.8l-3.1-2.6c-4-3.4-4.9-3.3-8.6.9-3.9,4.4-7.1,4.5-11.5.6-3.1-2.8-3.3-3.3-3.3-9.6s.2-6.8,3.3-9.6c4.4-3.9,7.6-3.8,11.5.6,3.7,4.2,5.2,4.3,8.9.8l2.8-2.7v-29.6h-14.3c-12.7,0-14.6-.2-16-1.8-2.3-2.5-2.2-2.9,1.8-7.3,4-4.5,4.3-6.1,1.5-10.7-4-6.6-13-9.1-20.6-5.8Z"/>
  </g>
</svg>