<?xml version="1.0" encoding="UTF-8"?>
<svg id="Laag_2" data-name="Laag 2"
  xmlns="http://www.w3.org/2000/svg" viewBox="0 0 108 108">
  <g id="Laag_1-2" data-name="Laag 1">
    <path d="m35.8.31c-3,.5-9.7,7.3-9.9,10.1-.3,3.5.3,4.8,3.7,8.3s3.4,3.6,1.7,5.7c-1.7,2-2.8,2.2-16.3,2.4l-14.5.3-.3,40.2-.2,40.3h81v-29.2l-2.9-2.9c-1.6-1.6-3.4-2.9-4-2.9s-2.8,1.8-5,4-4.7,4-5.6,4c-1,0-3.5-1.7-5.6-3.9-3.4-3.4-3.9-4.4-3.9-8.5,0-5.5,1.9-9.6,5.4-12,3.7-2.4,5.8-2,9.6,1.9,4,4.1,6.2,4.4,9.5,1,2.4-2.3,2.5-2.8,2.5-17.5v-15h-14.4c-11.8,0-14.7-.3-16-1.6-2.2-2.2-2-3.9.7-5.7,1.3-.9,3-2.9,3.7-4.6C58.4,6.41,47.6-1.69,35.8.31Z"/>
  </g>
</svg>