<?xml version="1.0" encoding="UTF-8"?>
<svg id="Laag_2" data-name="Laag 2" xmlns="http://www.w3.org/2000/svg" viewBox="0 0 107.17 108.1">
  <g id="Laag_1-2" data-name="Laag 1">
    <path d="m31.3,2c-3.5,2.1-6.3,6.6-6.3,10.3,0,1.3,1.5,3.7,3.5,5.7s3.5,3.7,3.5,4.2c0,.4-1,1.6-2.2,2.8-2,1.8-3.5,2-16,2H0v14.8c0,14.1.1,14.9,2.3,16.9,4.1,3.7,4.6,3.6,9.2-.6,2.5-2.3,4.8-4.1,5.3-4.1s2.4,1,4.3,2.3c6.8,4.6,7.4,15.3,1.2,20.7-4.4,3.9-6.8,3.8-10.6-.5-3.6-4.1-6.5-4.4-9.5-1.2-2.1,2.2-2.2,3.3-2.2,17.6v15.2l14.4-.3c13.5-.3,14.6-.4,16.9-2.6,4-3.8,3.9-5.7-.4-9.6-4.7-4.2-4.9-6.4-.9-10.9,6.5-7.4,20.2-4.7,22.5,4.4.5,2.1,0,3.2-3.3,6.3-4.4,4.2-4.5,6-.5,9.8,2.3,2.2,3.4,2.3,16.9,2.6l14.4.3v-14c0-13.4.1-14.1,2.4-16.8l2.5-2.8,3.8,3.7c5.3,5.2,9.1,5.2,14.4-.1,4-4,4.4-5.4,3.9-14.1-.2-4.2-3.1-8.5-7-10.5-4.4-2.3-6.6-1.8-10.9,2-2.1,1.9-4.1,3.5-4.4,3.5-.4,0-1.5-1-2.7-2.2-1.8-2-2-3.5-2-16v-13.8h-13.8c-12.5,0-14-.2-16-2-1.2-1.2-2.2-2.3-2.2-2.7,0-.3,1.6-2.3,3.5-4.4,3.9-4.3,4.3-6.5,2-11-2.4-4.5-7-6.9-13.5-6.9-3.7,0-6.6.6-8.7,2Z"/>
  </g>
</svg>