<?xml version="1.0" encoding="UTF-8"?>
<svg id="Laag_2" data-name="Laag 2" xmlns="http://www.w3.org/2000/svg" viewBox="0 0 134.88 107.79">
  <g id="Laag_1-2" data-name="Laag 1">
    <path d="m59.98,1.49c-4,2-7.1,6.7-7.1,10.7,0,2,1.1,3.9,3.5,6.2,3.7,3.4,3.8,5.6.4,7.4-1,.6-7.8,1-15.3,1h-13.5l-.3,14.6c-.3,14.1-.4,14.7-2.7,16.6l-2.5,1.9-3.1-3.4c-4.1-4.5-6.6-5.2-11-3.1-9,4.2-11.3,17.4-4.2,24.5,5.8,5.8,9.9,5.8,15.4-.1l2.9-3.1,2.5,1.9c2.3,2,2.4,2.5,2.6,16.4l.2,14.3,12.8.3c14.6.3,16.5,0,19.3-3,2.9-3.1,2.5-5.5-1.5-9.2-4.4-4.2-4.4-6.5-.1-11,3.1-3.3,3.8-3.6,9-3.6,6.4,0,9.9,1.8,12.2,6.1,2,4,1.9,4.5-2.6,8.9-3.7,3.6-3.9,4.1-2.8,6.5,2.1,4.6,5.4,5.5,20.3,5.5h13.5v-14c0-13.9,0-14.1,2.6-16.7l2.7-2.7,2.6,3.2c5.1,6.1,10.9,5.8,16.4-.7,2.3-2.8,2.7-4.2,2.7-9.7,0-5.9-.3-6.7-3.5-10.3-2-2.1-4.7-4.2-6-4.5-3.1-.8-7.6,1.4-10.3,5.1l-1.9,2.7-2.7-2.7c-2.6-2.6-2.6-2.8-2.6-16.7v-14h-14.3c-12.7,0-14.6-.2-16-1.8-2.3-2.5-2.2-3,1.8-6.9,4.8-4.7,4.7-8.1-.4-13.5-3.5-3.8-4.3-4.2-9.7-4.5-4.2-.3-6.9.1-9.3,1.4Z"/>
  </g>
</svg>