<?xml version="1.0" encoding="UTF-8"?>
<svg id="Laag_2" data-name="Laag 2" xmlns="http://www.w3.org/2000/svg" viewBox="0 0 108.1 107.56">
  <g id="Laag_1-2" data-name="Laag 1">
    <path d="m35.5.56c-1.8.6-4.6,2.6-6.3,4.5-4.2,4.9-4.1,8.4.5,13.5,3.5,3.9,3.6,4.1,1.9,6-1.6,1.7-3.4,2-16.4,2.2l-14.6.3-.3,40.2-.3,40.3h15.1c14.7,0,15.2-.1,17.5-2.5,3.4-3.3,3.1-5.5-1-9.5-3.9-3.8-4.2-4.8-2-9,2.2-4.3,6.8-6.3,12.9-5.7,4.1.4,5.5,1,8.3,4.1,1.8,1.9,3.3,4.3,3.3,5.2,0,.8-1.8,3.3-3.9,5.5-4.4,4.5-4.4,6.7-.3,9.9,2.2,1.8,4,2,16.8,2h14.4v-13.8c0-10.8.3-14.2,1.6-16,2-3,3-2.8,7.5,1.3,4.5,4,6.8,4.3,11.6,1.4,4.6-2.9,6.3-6.6,6.3-14,0-5.8-.2-6.3-3.9-10-5.3-5.3-9.4-5.4-14.5-.2l-3.7,3.8-2.5-2.8c-2.3-2.7-2.4-3.4-2.4-16.8v-13.9h-14.3c-12.7,0-14.6-.2-16-1.8q-2.2-2.5,1.8-6.5c2-2,3.5-4.5,3.5-5.9,0-3-3.2-8.2-6.3-10.2-3-2-10.3-2.8-14.3-1.6Z"/>
  </g>
</svg>