<?xml version="1.0" encoding="UTF-8"?>
<svg id="Laag_2" data-name="Laag 2" xmlns="http://www.w3.org/2000/svg" viewBox="0 0 107.87 134.4">
  <g id="Laag_1-2" data-name="Laag 1">
    <path d="m31,2.6c-6.9,5.8-7.3,11.4-1.3,16.3l3.6,2.9-2.6,2.6c-2.6,2.5-2.9,2.6-16.7,2.6H0v14.4c0,13.6.1,14.6,2.3,17,3.7,4.1,6,4.1,9.1.2,3.5-4.6,5.8-5.2,9.9-2.7,4.2,2.6,5.7,5.8,5.7,12.3,0,4.5-.4,5.4-3.6,8.4-1.9,1.9-4.4,3.4-5.5,3.4-1,0-3.6-1.6-5.8-3.5-4.1-3.7-5.7-4.2-8.2-2.2-3.3,2.5-3.9,5.5-3.9,19.4v13.8h14.6c14.2,0,14.6.1,16.5,2.4l2,2.5-3.4,3.1c-4.5,4.1-5.2,6.6-3.1,11,2.6,5.6,6.7,7.9,13.9,7.9s11.3-2.3,13.9-7.8c2-4.2,1.1-7.1-3.4-11.3l-3.1-2.9,1.9-2.5c2-2.3,2.5-2.4,16.4-2.6l14.3-.2.2-12.8c.3-15,.7-16.9,3.3-18.3,1.7-.9,2.6-.6,5.4,2.5,3.9,4.1,7.4,4.5,12.2,1.6,4.5-2.7,6.7-8.2,6.2-14.9-.4-4.9-.9-5.9-4.6-9.4-5.4-5-8.9-5.1-13.5-.3-3.9,4-4.7,4.2-7,1.7-1.4-1.5-1.7-4.2-1.7-16v-14.2h-14c-13.9,0-14.1,0-16.7-2.6l-2.7-2.7,3.1-2.6c4.7-3.9,5.6-6.4,4-10.4-.8-1.8-2.9-4.5-4.6-6-2.8-2.3-4.2-2.7-9.6-2.7s-6.8.4-9.5,2.6Z"/>
  </g>
</svg>