<?xml version="1.0" encoding="UTF-8"?>
<svg id="Laag_2" data-name="Laag 2" xmlns="http://www.w3.org/2000/svg" viewBox="0 0 135 134.99">
  <g id="Laag_1-2" data-name="Laag 1">
    <path d="m59.29,2.08c-3.5,2.1-7.2,7.4-7.2,10.3,0,.9,1.8,3.7,4,6.1l4,4.3-2.3,2.1c-2.2,2-3.4,2.2-16.5,2.2h-14.2v14.2c0,13.2-.1,14.3-2.2,16.5l-2.2,2.3-3.5-3.4c-4.7-4.5-7.7-5.2-11.9-2.6-9.4,5.8-9.8,20.7-.7,26.6,4.3,2.8,8.1,2.2,12.3-2l3.8-3.6,2.2,2.3c2.1,2.2,2.2,3.3,2.2,16.5v14.2h14.2c13.1,0,14.3.2,16.5,2.2l2.3,2.1-4,4.3c-4.6,5-4.9,6.8-1.7,11.5,5.8,8.8,19.8,9.1,26,.7,3.2-4.3,2.6-8.3-1.7-12.6l-3.6-3.8,2.3-2.2c2.2-2.1,3.3-2.2,16.5-2.2h14.2v-14.2c0-13.2.1-14.3,2.2-16.5l2.2-2.3,3.8,3.6c4.3,4.3,8.3,4.9,12.6,1.7,8.4-6.2,8.1-20.2-.7-26-4.7-3.2-6.5-2.9-11.5,1.7l-4.3,4-2.1-2.3c-2-2.2-2.2-3.4-2.2-16.5v-14.2h-14.2c-13.2,0-14.3-.1-16.5-2.2l-2.3-2.2,3.6-3.8c4.2-4.2,4.8-8,2-12.3-4.2-6.4-14.6-8.6-21.4-4.5Z"/>
  </g>
</svg>