<?xml version="1.0" encoding="UTF-8"?>
<svg id="Laag_2" data-name="Laag 2" xmlns="http://www.w3.org/2000/svg" viewBox="0 0 107.87 134.55">
  <g id="Laag_1-2" data-name="Laag 1">
    <path d="m36.1.25c-3.7.7-6.8,3.1-9.2,6.9-2.7,4.4-2,7.5,2.8,11.9l3.6,3.2-2.2,2.2c-1.9,1.9-3.1,2.1-16.6,2.1H0v81h14c13.8,0,14.1.1,16.7,2.6l2.6,2.6-3.6,2.9c-6,4.9-5.6,10.5,1.3,16.3,2.7,2.2,4.1,2.6,9.5,2.6s6.8-.4,9.6-2.7c1.7-1.5,3.8-4.2,4.6-6,1.1-2.9,1.1-3.7-.2-6.2-.8-1.6-2.7-3.8-4.2-4.9l-2.7-1.9,2.7-2.7c2.6-2.6,2.8-2.6,16.7-2.6h14v-14.3c0-12.7.2-14.6,1.8-16,2.5-2.3,3.7-2.1,5.9.6,4.5,5.8,9,6,14.5.9,3.7-3.5,4.2-4.5,4.6-9.4.5-6.7-1.7-12.2-6.2-14.9-4.8-2.9-8.3-2.5-12.2,1.6-2.8,3-3.7,3.4-5.3,2.6-2.8-1.6-3.1-3.1-3.1-18.2v-13.9h-14.9c-14.3,0-15.1-.1-16.5-2.2-1.5-2.1-1.4-2.4,1.8-5.8,1.8-1.9,3.6-4.3,4-5.3.8-2.5-2-8.3-5.3-10.6-2.8-2-10-3.2-14-2.4Z"/>
  </g>
</svg>