<?xml version="1.0" encoding="UTF-8"?>
<svg id="Laag_2" data-name="Laag 2" xmlns="http://www.w3.org/2000/svg" viewBox="0 0 107.94 108">
  <g id="Laag_1-2" data-name="Laag 1">
    <path d="m30,3.7c-2.4,2.3-4.3,5.1-4.6,7-.6,2.8-.1,3.8,3,6.9,4.2,4.2,4.4,5.7,1.4,7.8-1.8,1.3-5.2,1.6-16,1.6H0v29.2l2.9,2.9c1.6,1.6,3.4,2.9,4,2.9s2.8-1.8,5-4,4.7-4,5.6-4c1,0,3.5,1.7,5.6,3.9,3.4,3.4,3.9,4.4,3.9,8.5,0,5.5-1.9,9.6-5.4,12-3.7,2.4-5.8,2-9.6-1.9-4.1-4.2-6.3-4.4-9.5-.9-2.4,2.6-2.5,3.2-2.5,17.6v14.8l40.3-.2,40.2-.3.3-14.7c.2-14.3.3-14.8,2.6-16.3,2.2-1.5,2.5-1.4,5.9,2,4.1,4.1,7.4,4.5,12.2,1.5,8.8-5.4,8.5-19.8-.4-25.7-4.7-3.2-7.4-2.9-11.4,1.2-3.9,4-4.7,4.2-7,1.7-1.4-1.5-1.7-4.2-1.7-16v-14.2h-14.3c-14.1,0-14.4,0-16.8-2.6l-2.4-2.6,3.2-2.6c6.2-5.2,5.9-11-.6-16.5-2.8-2.3-4.2-2.7-9.7-2.7-6.1,0-6.7.2-10.4,3.7Z"/>
  </g>
</svg>