<?xml version="1.0" encoding="UTF-8"?>
<svg id="Laag_2" data-name="Laag 2" xmlns="http://www.w3.org/2000/svg" viewBox="0 0 134.47 108.04">
  <g id="Laag_1-2" data-name="Laag 1">
    <path d="m58.7,2.04c-3.5,2.1-7.2,7.4-7.2,10.2,0,1,1.6,3.5,3.5,5.7,4,4.4,4.2,5.2,1.7,7.4-1.5,1.4-4.2,1.7-16,1.7h-14.2v14.3c0,13.7-.1,14.5-2.3,16.5l-2.3,2.2-3.3-3.4c-5.5-5.7-10.2-5.4-16.1.9-2.2,2.3-2.5,3.6-2.5,10s.3,7.7,2.5,10c3.5,3.8,8.3,5.7,11.3,4.6,1.4-.5,3.6-2.4,5-4.2l2.6-3.3,2.5,2.4c2.6,2.3,2.6,2.6,2.6,16.7v14.3h81v-14.5c0-13.6.1-14.5,2.2-16.5l2.2-2,3.8,3.7c4.4,4.3,8,4.7,12.8,1.3,8.3-5.9,7.9-19.9-.9-25.7-4.7-3.2-6.5-2.9-11.5,1.7l-4.3,4-2.1-2.1c-2.1-1.8-2.2-2.9-2.2-16.4v-14.5h-14.2c-14.5,0-15.3-.2-17.6-3.2-1.2-1.4-.8-2.1,2.4-5.1,4.5-4.1,4.9-7.8,1.4-12.7C75.3.04,65.2-1.86,58.7,2.04Z"/>
  </g>
</svg>