<?xml version="1.0" encoding="UTF-8"?>
<svg id="Laag_2" data-name="Laag 2" xmlns="http://www.w3.org/2000/svg" viewBox="0 0 107.93 107.57">
  <g id="Laag_1-2" data-name="Laag 1">
    <path d="m36,.27c-3.7.7-8.5,4.7-10,8.2-1.5,3.8,0,8.4,3.7,10.8,2.7,1.8,2.9,3.5.7,5.7-1.3,1.3-4.2,1.6-16,1.6H0v81h81v-14.3c0-12.7.2-14.6,1.8-16,2.5-2.3,3-2.2,6.9,1.8,4,4.1,6.7,4.4,11.4,1.2,9.2-6.1,9.1-20.6-.3-26.1-4.2-2.6-7.6-2-11.5,1.9-3.4,3.4-3.7,3.5-5.9,2-2.3-1.5-2.4-2-2.6-16.3l-.3-14.7-14.5-.3c-13.5-.2-14.6-.4-16.3-2.4-1.7-2.1-1.7-2.2,1.6-5.7,1.9-2,3.7-4.3,4-5.2.7-2.2-2.7-8.9-5.6-11.1-2.5-1.8-9.7-2.9-13.7-2.1Z"/>
  </g>
</svg>