<?xml version="1.0" encoding="UTF-8"?>
<svg id="Laag_2" data-name="Laag 2" xmlns="http://www.w3.org/2000/svg" viewBox="0 0 81 108">
  <g id="Laag_1-2" data-name="Laag 1">
    <path d="m30.9,2.7c-6.5,5.5-6.8,11.3-.6,16.6l3.2,2.7-2.8,2.5c-2.7,2.4-3.3,2.5-16.8,2.5H0v14.1c0,7.7.5,14.9,1,16,.6,1,2.5,2.6,4.2,3.5l3.1,1.6,3.7-4.1c4.2-4.5,4.9-4.7,8.9-2.7,4.3,2.3,6.1,5.8,6.1,12.2,0,5-.3,5.9-3.4,9-4.3,4.3-7,4.3-11.2-.1-4-4.3-6.5-4.4-9.8-.4-2.6,3.1-2.7,3.3-2.4,17.3l.3,14.1h29.7l2.4-2.8c3.3-3.8,3-5.7-1.1-9-4.5-3.6-4.7-7.1-.5-11.4,5-5.1,15.2-5,19.8.2,3.3,3.8,2.8,7.3-1.5,11.7-3.5,3.6-3.6,3.9-2.2,6.4,2.3,4.3,6.4,5.4,20.9,5.4h13V27h-13.8c-10.8,0-14.2-.3-16-1.6-3-2.1-2.8-3.6,1.4-7.8,3.1-3.1,3.6-4.1,3-6.9-.3-1.9-2.2-4.7-4.6-7-3.7-3.5-4.3-3.7-10.4-3.7-5.5,0-6.9.4-9.7,2.7Z"/>
  </g>
</svg>