<?xml version="1.0" encoding="UTF-8"?>
<svg id="Laag_2" data-name="Laag 2" xmlns="http://www.w3.org/2000/svg" viewBox="0 0 107.97 108.12">
  <g id="Laag_1-2" data-name="Laag 1">
    <path d="m59.27,2.12c-7.5,4.5-8.6,11-2.9,16.8l3.6,3.8-2.3,2.2c-2.2,2.1-3.3,2.2-16.5,2.2h-14.2v14.2c0,13.1-.2,14.3-2.2,16.5l-2.1,2.3-4.3-4c-5-4.6-6.8-4.9-11.5-1.7-8.8,5.8-9.2,19.8-.9,25.7,4.8,3.4,8.4,3,12.8-1.3l3.8-3.7,2.2,2c2.1,2,2.2,2.9,2.2,16.5v14.5h14.4c14.1,0,14.5-.1,17.5-2.6,4-3.3,3.9-5.2-.4-9.4-4.5-4.3-4.5-7.2-.1-11.6,3.1-3.1,4-3.4,9-3.4s6,.4,9.1,3.1c4.6,4.1,4.7,7.4,0,11.9-1.9,1.9-3.5,4-3.5,4.8,0,.7,1.3,2.7,2.9,4.3l2.9,2.9h29.2V27.12h-14.3c-12.7,0-14.6-.2-16-1.8-2.3-2.5-2.2-2.9,1.8-7.3,4-4.5,4.3-6.1,1.5-10.7-4.3-7-14.7-9.5-21.7-5.2Z"/>
  </g>
</svg>