<?xml version="1.0" encoding="UTF-8"?>
<svg id="Laag_2" data-name="Laag 2" xmlns="http://www.w3.org/2000/svg" viewBox="0 0 81 134.78">
  <g id="Laag_1-2" data-name="Laag 1">
    <path d="m31.3,2c-3.4,2-6.3,6.6-6.3,9.9,0,1.2,1.6,3.8,3.5,6,3.7,4.1,3.8,6.3.4,8.1-1,.6-7.9,1-15.3,1H0v14.8c0,14.1.1,14.9,2.3,16.9,4.1,3.7,4.6,3.6,9.2-.6,2.5-2.3,5.1-4.1,5.9-4.1.9,0,3.1,1.4,5,3.1,5.7,5,6.1,14.1.9,19.3-4.3,4.4-6.9,4.4-11.2.2-4.4-4.3-7.2-4.6-10-1-1.9,2.4-2.1,4-2.1,17.3v14.6l13.3-.3c12.3-.3,13.5-.1,16,1.8,1.5,1.2,2.7,2.5,2.7,3,0,.4-1.6,2.4-3.5,4.3-3.8,3.8-4.3,6.3-2,10.7,4.7,9.2,18.3,10.5,25.4,2.5,4.3-4.9,4.1-8.4-.6-13.6l-3.7-4.1,2.8-2.5c2.7-2.3,3.3-2.4,16.5-2.2l13.6.1.3-40.1.2-40.1h-14.3c-14.1,0-14.4-.1-16.7-2.5l-2.4-2.5,3.7-3.6c4.1-4,4.6-6.8,2.2-11.5-2.4-4.5-7-6.9-13.5-6.9-3.7,0-6.6.6-8.7,2Z"/>
  </g>
</svg>