<?xml version="1.0" encoding="UTF-8"?>
<svg id="Laag_2" data-name="Laag 2"
  xmlns="http://www.w3.org/2000/svg" viewBox="0 0 107 134">
  <g id="Laag_1-2" data-name="Laag 1">
    <path d="m60.4.89c-2.9,1.1-8.4,7.7-8.4,10,0,3,2.1,6.8,4.7,8.5,2.8,1.9,2.9,3.6.5,5.8-1.5,1.4-4.2,1.7-16,1.7h-14.2v14c0,13.8-.1,14.1-2.6,16.7l-2.5,2.5-3.2-3.4c-1.8-1.9-4.2-3.8-5.4-4.2-2.8-.9-7.3,1.4-10.7,5.4-2.2,2.7-2.6,4.1-2.6,9.5s.4,6.8,2.6,9.5c3.4,4,7.9,6.3,10.7,5.4,1.2-.4,3.6-2.3,5.4-4.2l3.2-3.4,2.5,2.5c2.5,2.6,2.6,2.9,2.6,16.7v14h14.3c12.7,0,14.6.2,16,1.8,2.3,2.5,2.2,3-1.8,6.9-4.8,4.6-4.7,8.1.3,13.5,3.5,3.7,4.5,4.2,9.4,4.6,6.8.5,11.9-1.6,14.8-6.3,3-4.9,2.6-8.2-1.6-12.2-3.5-3.2-3.5-3.4-2-5.8,1.6-2.4,2-2.5,16.4-2.7l14.7-.3V27.39l-13-.2c-15.3-.3-17.1-.7-18.5-3.3-.9-1.7-.6-2.6,2.5-5.4,2.4-2.3,3.5-4.2,3.5-6.1,0-3.9-3.5-9-7.4-10.9-3.6-1.7-10.7-2-14.2-.6Z"/>
  </g>
</svg>