<?xml version="1.0" encoding="UTF-8"?>
<svg id="Laag_2" data-name="Laag 2" xmlns="http://www.w3.org/2000/svg" viewBox="0 0 81 107.92">
  <g id="Laag_1-2" data-name="Laag 1">
    <path d="m33,1.72c-3.8,1.8-8,7.4-8,10.4,0,1,1.8,3.8,4,6.2l4,4.3-2.1,2.1c-1.8,2.1-2.9,2.2-16.4,2.2H0v14.4c0,14.1.1,14.5,2.6,17.5,3.3,4,5.2,3.9,9.4-.4,4.3-4.5,7.2-4.5,11.6-.1,3.1,3.1,3.4,4,3.4,9,0,4.7-.4,6-3,8.9-4.8,5.5-8.4,5.3-13-.6-2.7-3.5-4.4-3.4-8.1.2l-2.9,2.9v29.2h81V26.92h-14.5c-13.4,0-14.7-.2-16.6-2.1l-2.1-2.1,3.8-3.9c4.4-4.5,4.8-8.1,1.6-12.6C49,.22,39.9-1.78,33,1.72Z"/>
  </g>
</svg>