<?xml version="1.0" encoding="UTF-8"?>
<svg id="Laag_2" data-name="Laag 2" xmlns="http://www.w3.org/2000/svg" viewBox="0 0 108 107">
  <g id="Laag_1-2" data-name="Laag 1">
    <path d="m59,1.7c-8.1,5.6-8.7,11.5-1.7,17.4l3.1,2.6-2.7,2.7c-2.6,2.6-2.8,2.6-16.7,2.6h-14v13.8c0,10.8-.3,14.2-1.6,16-2.1,3-3.1,2.8-7.1-1.3-2.2-2.2-4.3-3.5-6-3.5-3.8,0-8.8,3.5-10.7,7.4-3.4,7.3-1.2,16.8,4.9,20.6,4.8,2.9,7.9,2.6,11.8-1.5,4-4.1,5-4.3,7.1-1.3,1.3,1.8,1.6,5.2,1.6,16v13.8h81V27h-14c-13.9,0-14.1,0-16.7-2.6l-2.7-2.7,3.2-2.6c6.3-5.2,6-10.7-.8-16.5-2.7-2.2-4.1-2.6-9.4-2.6-4.2,0-6.9.5-8.6,1.7Z"/>
  </g>
</svg>