<?xml version="1.0" encoding="UTF-8"?>
<svg id="Laag_2" data-name="Laag 2" xmlns="http://www.w3.org/2000/svg" viewBox="0 0 81 81">
  <g id="Laag_1-2" data-name="Laag 1">
    <path d="m0,13.5c0,14.9.8,17.8,5.4,20.2,2.9,1.5,3.1,1.5,5.7-1.5,4.2-4.7,6.4-5.5,9.7-3.8,4.4,2.3,6.2,5.8,6.2,12.2,0,5-.3,5.9-3.4,9-4.5,4.5-7.7,4.5-11.3-.1-3.5-4.4-6.3-4.5-9.7-.4C0,52.2-.1,52.4.2,66.4l.3,14.1h14.7c14.1,0,14.7-.1,17.2-2.4,3.5-3.3,3.3-6.1-.9-9.4-4.4-3.5-4.5-6.5-.4-11.2,2.9-3.3,3.4-3.5,9.4-3.5,5.6,0,6.6.3,9.4,2.9,4.2,4,4.1,7.5-.4,12.2-3.3,3.3-3.5,3.8-2.4,6.3,2.2,4.7,5.4,5.6,20.4,5.6h13.5v-14.9c0-14.7,0-14.9-2.6-17.5-3.5-3.5-5.3-3.3-9.4.9-3.7,3.8-6.3,4.3-9.8,1.9-3.3-2.3-5.2-6.7-5.2-11.9,0-3.7.6-5.1,3.3-7.9,5.1-5.4,7.2-5.5,11.7-.6,4.3,4.7,6.5,4.8,10,.3,1.8-2.3,2-4,2-16.9V0H0v13.5Z"/>
  </g>
</svg>