<?xml version="1.0" encoding="UTF-8"?>
<svg id="Laag_2" data-name="Laag 2"
  xmlns="http://www.w3.org/2000/svg" viewBox="0 0 108 81">
  <g id="Laag_1-2" data-name="Laag 1">
    <path d="m26.97,14.5c0,13.4-.2,14.7-2.1,16.6l-2.1,2.1-3.9-3.8c-4.5-4.4-8.1-4.8-12.9-1.4-8.3,5.9-7.9,19.9.9,25.7,4.7,3.2,6.5,2.9,11.5-1.7l4.3-4,2.1,2.3c2,2.2,2.2,3.4,2.2,16.5v14.2h14.4c14.1,0,14.5-.1,17.5-2.6,4-3.3,3.9-5.2-.4-9.4-4.5-4.3-4.5-7.2-.1-11.6,3.1-3.1,4-3.4,9-3.4s6,.4,9.1,3.1c4.8,4.2,4.8,7.9,0,12.2-4.3,3.7-4.3,5-.6,8.8l2.9,2.9h29.2v-29.2l-2.9-2.9c-3.8-3.7-5.1-3.7-8.8.6-3.9,4.4-7.1,4.5-11.5.6-3.1-2.8-3.3-3.3-3.3-9.6s.2-6.8,3.3-9.6c4.3-3.9,7.4-3.7,11.3.6,3.9,4.2,5.7,4.4,9.2.7,2.7-2.8,2.7-2.9,2.7-17.5V0H26.97v14.5Z"/>
  </g>
</svg>