<?xml version="1.0" encoding="UTF-8"?>
<svg id="Laag_2" data-name="Laag 2" xmlns="http://www.w3.org/2000/svg" viewBox="0 0 81 81">
  <g id="Laag_1-2" data-name="Laag 1">
    <path d="m0,40.5v40.5h29.2l2.9-2.9c1.6-1.6,2.9-3.6,2.9-4.3,0-.8-1.6-2.9-3.5-4.8-4.5-4.3-4.5-7.2-.1-11.6,3.1-3.1,4-3.4,9-3.4s6,.4,9.1,3.1c4.6,4.1,4.7,7.4,0,11.9-1.9,1.9-3.5,4-3.5,4.8,0,.7,1.3,2.7,2.9,4.3l2.9,2.9h29.2v-14.4c0-14.1-.1-14.5-2.6-17.5-3.3-4-5.2-3.9-9.4.4-4.3,4.5-7.2,4.5-11.6.1-3.1-3.1-3.4-4-3.4-9s.4-6,3.1-9.1c4.2-4.8,7.9-4.8,12.2,0,3.7,4.3,5,4.3,8.8.6l2.9-2.9V0H0v40.5Z"/>
  </g>
</svg>