<?xml version="1.0" encoding="UTF-8"?>
<svg id="Laag_2" data-name="Laag 2" xmlns="http://www.w3.org/2000/svg" viewBox="0 0 81 107.7">
  <g id="Laag_1-2" data-name="Laag 1">
    <path d="m0,14.6v14.6l2.9,2.9c1.6,1.6,3.4,2.9,4,2.9s2.8-1.8,5.1-4.1c4.5-4.6,6.5-4.6,11.4.1,5.3,5.2,4.6,15.7-1.4,20-4,2.8-6.1,2.5-10-1.5-4-4.1-6.2-4.4-9.5-1-2.4,2.3-2.5,2.8-2.5,17.5v15h14.3c12.7,0,14.6.2,16,1.8,2.3,2.5,2.2,2.8-1.8,6.8s-4.4,6.8-1.2,11.5c3.3,5,8.1,7.1,14.4,6.5,5.6-.5,9.2-2.6,11.7-6.8,2.6-4.3,2-7.8-1.9-11.8-3.5-3.6-3.5-3.7-1.8-5.8,1.7-2,2.8-2.2,16.3-2.4l14.5-.3v-14.7c0-14.1-.1-14.7-2.4-17.2-3.3-3.5-5.6-3.3-9.5.9-4.1,4.4-6.6,4.4-11.2.2-3.3-3-3.5-3.7-3.5-8.9,0-3.1.5-6.6,1.1-7.8,1.1-2,6.6-6,8.3-6,.4,0,2.7,1.8,5.2,4.1,4.2,3.9,4.4,4,7.2,2.5,4.5-2.3,5.3-5.3,5.3-20.1V0H0v14.6Z"/>
  </g>
</svg>