<?xml version="1.0" encoding="UTF-8"?>
<svg id="Laag_2" data-name="Laag 2" xmlns="http://www.w3.org/2000/svg" viewBox="0 0 108 107.87">
  <g id="Laag_1-2" data-name="Laag 1">
    <path d="m27,13.9c0,13.5-.1,14.1-2.5,16.8l-2.4,2.8-2.5-3.1c-3.7-4.6-7.6-6-11.4-4-1.6.8-4.1,2.9-5.6,4.6-2.2,2.7-2.6,4.1-2.6,9.6,0,6.1.2,6.7,3.9,10.6,3.2,3.5,4.5,4.2,7.6,4.2s4.4-.7,7.1-3.8l3.3-3.8,2.5,2.6c2.5,2.5,2.6,2.8,2.6,16.6v14h14.3c12.7,0,14.6.2,16,1.8,2.3,2.5,2.2,2.9-1.8,7.3-4.6,5.1-4.5,7.9.3,13.1,3.4,3.6,4.5,4.2,9.3,4.6,6.9.5,12.2-1.6,14.9-6,3-5,2.6-8.5-1.5-12.4-3-2.8-3.4-3.7-2.6-5.3,1.6-2.8,3.1-3.1,18.2-3.1h13.9v-13.8c0-11.8-.3-14.1-1.9-16.9-3-4.9-5.6-5.1-10-.9-4.6,4.5-7.9,4.7-11.9.7-5.1-5.1-5-14.1.1-19.1,4.2-4.1,7.2-3.9,11.9.7,3.7,3.6,4,3.7,6.6,2.3,4.5-2.6,5.2-5.3,5.2-20.3V0H27v13.9Z"/>
  </g>
</svg>