<?xml version="1.0" encoding="UTF-8"?>
<svg id="Laag_2" data-name="Laag 2"
  xmlns="http://www.w3.org/2000/svg" viewBox="0 0 108 108">
  <g id="Laag_1-2" data-name="Laag 1">
    <path d="m0,40.5v40.5h14.3c12.7,0,14.6.2,16,1.8,2.3,2.5,2.2,2.7-1.9,6.9-3.2,3.1-3.5,4-3,7.1,1.1,7.3,9.2,12.1,17.9,10.8,3.6-.6,5.3-1.6,8.1-4.7,4.8-5.2,4.8-8.9.1-13.6-4-4-4.1-4.4-1.7-6.6,1.4-1.3,4.6-1.7,16.2-1.9l14.5-.3v-29.7l-2.8-2.4c-3.8-3.3-5.7-3-9,1.1-2,2.5-3.6,3.5-5.6,3.5-3.5,0-9-5.3-9.3-8.9-.3-4.4.3-9.4,1.3-11.3,1-1.8,6.6-5.8,8.2-5.8.4,0,2.8,1.9,5.3,4.2,4.2,3.9,4.6,4,7.1,2.7,4.2-2.3,5.3-6.4,5.3-20.9V0H0v40.5Z"/>
  </g>
</svg>