<?xml version="1.0" encoding="UTF-8"?>
<svg id="Laag_2" data-name="Laag 2" xmlns="http://www.w3.org/2000/svg" viewBox="0 0 108 81">
  <g id="Laag_1-2" data-name="Laag 1">
    <path d="m0,13.5c0,14.8.8,17.8,5.3,20.1,2.8,1.5,3,1.4,7.2-2.5,2.5-2.3,4.8-4.1,5.2-4.1,1.8,0,7.3,4,8.4,6.1.6,1.3,1.1,4.8,1.1,7.8,0,5.1-.4,5.9-3.6,8.8-4.6,4.2-7.1,4.2-11.2-.2-3.9-4.2-6.2-4.4-9.5-.9-2.3,2.5-2.4,3.1-2.4,17.2v14.7l14.1.3c14,.3,14.2.2,17.3-2.4,4-3.3,3.9-5.8-.4-9.8-4.4-4.2-4.4-6.9-.1-11.2,3.1-3.1,3.9-3.4,9.3-3.4,6.5,0,9.5,1.5,11.8,6,.8,1.6,1.5,3.2,1.5,3.5s-1.8,2.5-4,4.9c-3.8,4.1-4,4.6-2.8,7.1,2.1,4.6,5.3,5.5,20.3,5.5h13.5v-13.9c0-13.4.1-14.1,2.4-16.8l2.5-2.8,3.4,3.7c2.7,3,4.2,3.8,7,3.8,6.8,0,11.7-6.4,11.7-15.2,0-5.9-2-9.9-6.6-12.9-4.2-2.7-6.9-2.3-11.3,1.6-4.5,4.1-5.5,4.3-7.5,1.3-1.3-1.8-1.6-5.2-1.6-16V0H0v13.5Z"/>
  </g>
</svg>