<?xml version="1.0" encoding="UTF-8"?>
<svg id="Laag_2" data-name="Laag 2" xmlns="http://www.w3.org/2000/svg" viewBox="0 0 134.5 81">
  <g id="Laag_1-2" data-name="Laag 1">
    <path d="m26.5,14.9c0,14.3-.1,15.1-2.2,16.5-2.1,1.5-2.4,1.4-5.8-1.8-4.6-4.4-6.5-4.9-10.6-3-5.5,2.6-7.9,6.9-7.9,14.1s1.9,10.4,7.4,13.7c4,2.3,6.9,1.6,11.3-2.9l3.4-3.5,2.2,2c2.1,2,2.2,2.9,2.2,16.5v14.5h14.9c14.7,0,14.9,0,17.5-2.6,3.5-3.5,3.3-5.3-.9-9.4-4.5-4.3-4.5-7.2-.1-11.6,3.1-3.1,3.9-3.4,9.1-3.4s6,.3,9.6,3.9c2.2,2.1,3.9,4.7,3.9,5.6,0,1-1.8,3.5-4.1,5.6-4.6,4.2-4.6,6.4-.2,9.9,2.3,1.8,4,2,16.9,2h14.4v-13.8c0-10.8.3-14.2,1.6-16,2-3,4-2.8,7,.7,4.5,5.4,10.2,4.7,15.8-1.9,2.2-2.7,2.6-4.1,2.6-9.5s-.4-6.8-2.7-9.6c-5.5-6.5-11.3-6.8-16.6-.6l-2.7,3.2-2.5-2.8c-2.4-2.7-2.5-3.3-2.5-16.8V0H26.5v14.9Z"/>
  </g>
</svg>