<?xml version="1.0" encoding="UTF-8"?>
<svg id="Laag_2" data-name="Laag 2" xmlns="http://www.w3.org/2000/svg" viewBox="0 0 107.9 81">
  <g id="Laag_1-2" data-name="Laag 1">
    <path d="m0,40.5v40.5h14.4c14.1,0,14.5-.1,17.5-2.6,4-3.3,3.9-5.2-.4-9.4-4.5-4.3-4.5-7.2-.1-11.6,3.1-3.1,3.9-3.4,9.4-3.4s6.4.3,9,2.9c4.7,4.7,4.7,6.6-.1,11.8-4,4.3-4.1,4.6-2.6,7.1,2.5,4.5,5.2,5.2,20.2,5.2h13.7v-14.3c0-14.1,0-14.4,2.6-16.7l2.5-2.4,2.4,3.1c5.1,6.5,12.3,5.8,17.3-1.7,2-3,2.3-4.5,2-9.7-.4-6.7-2.5-10-8-12.9-4-2.1-5.4-1.8-9.7,2.1-4.4,4-5.2,4.2-7.4,1.7-1.4-1.5-1.7-4.2-1.7-16V0H0v40.5Z"/>
  </g>
</svg>