<?xml version="1.0" encoding="UTF-8"?>
<svg id="Laag_2" data-name="Laag 2" xmlns="http://www.w3.org/2000/svg" viewBox="0 0 107.87 107.5">
  <g id="Laag_1-2" data-name="Laag 1">
    <path d="m0,14.6v14.6l2.9,2.9c1.6,1.6,3.4,2.9,4,2.9s2.8-1.8,5.1-4.1c4.7-4.8,6.7-4.6,11.8.7,2.6,2.8,3.2,4.2,3.2,7.9,0,5.4-1.9,9.6-5.4,11.9-3.7,2.4-5.8,2-9.6-1.9-4.1-4.2-6.3-4.4-9.5-.9-2.4,2.6-2.5,3.2-2.5,17.5v14.9h14.4c11.8,0,14.7.3,16,1.6,2.3,2.2,2,3.6-1.3,6.5-4,3.5-4.8,7-2.5,11,3.2,5.4,6.7,7.3,13.3,7.4,6.9,0,10.4-1.7,13.3-6.3,3-4.9,2.6-7.8-1.6-12.1-3.4-3.5-3.5-3.8-2-5.9,1.4-2.1,2.2-2.2,16.5-2.2h14.9v-13.9c0-15.1.3-16.6,3.1-18.2,1.6-.8,2.5-.3,5,2.6,3.7,4.1,7.4,4.6,12.4,1.5,4.6-2.8,6.8-8,6.3-14.2-.6-5.6-3-9.4-7.7-12.2-4-2.3-7.5-1.5-11,2.5-3,3.4-4.2,3.6-6.4,1.1-1.4-1.5-1.7-4.2-1.7-16V0H0v14.6Z"/>
  </g>
</svg>