<?xml version="1.0" encoding="UTF-8"?>
<svg id="Laag_2" data-name="Laag 2" xmlns="http://www.w3.org/2000/svg" viewBox="0 0 134.98 107.9">
  <g id="Laag_1-2" data-name="Laag 1">
    <path d="m27.01,14.3c0,14.1,0,14.4-2.6,16.8l-2.6,2.4-2-2.8c-1.1-1.5-3.3-3.4-5-4.3-2.7-1.4-3.2-1.4-6.6.3-2,1-4.7,3.4-6,5.3-3.3,4.9-2.8,14.6.8,18.6,5.7,6,10.6,6.5,15.6,1.3,3.2-3.4,4.5-3.6,6.7-1.1,1.4,1.5,1.7,4.2,1.7,16v14.2h14.3c12.7,0,14.6.2,16,1.8,2.3,2.5,2.2,2.9-1.8,7.3-3.9,4.3-4.2,5.7-2.1,9.7,2.9,5.5,6.2,7.6,12.9,8,5.2.3,6.7,0,9.6-2,1.9-1.2,4.2-3.8,5.2-5.6,2.2-4.2,1.1-8.1-3.4-11.7l-3.1-2.4,2.4-2.5c2.3-2.6,2.6-2.6,16.7-2.6h14.3v-14.2c0-13.1.2-14.3,2.2-16.5l2.1-2.3,4.3,4c5,4.6,6.8,4.9,11.5,1.7,8.8-5.8,9.2-19.8.9-25.7-4.8-3.4-8.4-3-12.9,1.4l-3.9,3.8-2.1-2.1c-1.9-1.9-2.1-3.2-2.1-16.6V0H27.01v14.3Z"/>
  </g>
</svg>