<?xml version="1.0" encoding="UTF-8"?>
<svg id="Laag_2" data-name="Laag 2" xmlns="http://www.w3.org/2000/svg" viewBox="0 0 107.5 107.87">
  <g id="Laag_1-2" data-name="Laag 1">
    <path d="m0,40.5v40.5h14.3c12.7,0,14.6.2,16,1.8,2.3,2.5,2.2,3.4-1.2,6.3-4,3.5-4.8,7-2.5,11,2.8,4.7,6.6,7.1,12.2,7.7,6.2.5,11.4-1.7,14.2-6.3,3.1-5,2.6-8.7-1.6-12.4-3.5-3.1-3.5-3.3-2-5.6,1.6-2.5,1.8-2.5,16.6-2.5h15v-14.9c0-14.3.1-15.1,2.2-16.5,2.1-1.5,2.4-1.4,6,2.1,4.1,4,7.9,4.6,12.2,1.8,4.4-2.9,6-6.5,6.1-13.2,0-6.9-1.9-10.4-7.4-13.7-4.1-2.4-7.4-1.5-11.5,3l-3.2,3.5-2.2-2.1c-2.1-2-2.2-2.9-2.2-16.5V0H0v40.5Z"/>
  </g>
</svg>