<?xml version="1.0" encoding="UTF-8"?>
<svg id="Laag_2" data-name="Laag 2" xmlns="http://www.w3.org/2000/svg" viewBox="0 0 81 81.1">
  <g id="Laag_1-2" data-name="Laag 1">
    <path d="m0,14.3c0,15.6.7,17.9,5.9,19.8,2.3.9,2.9.7,5.1-1.9,4.2-4.9,6.5-5.6,10.4-3.3,4.1,2.6,5.6,5.8,5.6,12.2,0,4.5-.4,5.5-3.4,8.5-4.4,4.4-7.3,4.4-11.6-.1-4.2-4.3-6.1-4.4-9.4-.4-2.5,3-2.6,3.4-2.6,17.5v14.5l15.1-.3,15.1-.3,2.4-2.8c3.2-3.7,3-5.1-1.1-8.8-4.5-4.2-4.6-7.4-.2-11.7,3-2.9,3.9-3.2,9.4-3.2s6.5.3,9.2,3.1c4.2,4.2,4,7.4-.6,12.1-3.6,3.7-3.7,4-2.3,6.6,2.6,4.5,5.3,5.2,20.3,5.2h13.7V0H0v14.3Z"/>
  </g>
</svg>