<?xml version="1.0" encoding="UTF-8"?>
<svg id="Laag_2" data-name="Laag 2" xmlns="http://www.w3.org/2000/svg" viewBox="0 0 81 107.91">
  <g id="Laag_1-2" data-name="Laag 1">
    <path d="m0,14.9v14.9l3.1,2.6c1.7,1.4,3.5,2.6,4,2.6s2.1-1.4,3.6-3.1c4.1-4.5,5.8-5.2,9-3.5,4.3,2.2,6.4,5.1,7,9.4.7,5.3-1.2,10.7-4.7,13.2-4,2.8-6.4,2.5-10.1-1.5-3.9-4.1-6.1-4.4-9.4-1-2.4,2.3-2.5,2.8-2.5,17.5v15h14.3c12.7,0,14.6.2,16,1.8,2.3,2.5,2.2,2.9-1.8,6.6-4.1,3.9-4.4,6.9-1.2,11.7,5.8,8.7,18.1,9.1,25,1,3.8-4.6,3.6-8.4-.8-12.8-4-4-4.1-4.4-1.7-6.6,1.4-1.3,4.6-1.7,16.2-1.9l14.5-.3.3-40.3.2-40.2H0v14.9Z"/>
  </g>
</svg>