<?xml version="1.0" encoding="UTF-8"?>
<svg id="Laag_2" data-name="Laag 2" xmlns="http://www.w3.org/2000/svg" viewBox="0 0 107.5 107.87">
  <g id="Laag_1-2" data-name="Laag 1">
    <path d="m27,13.9c0,13.4-.1,14.1-2.4,16.8l-2.5,2.8-3.3-3.6c-1.8-2-4.3-3.9-5.5-4.3-2.8-.9-7.3,1.4-10.7,5.4-2.2,2.6-2.6,4.1-2.6,9.2,0,9.1,4.7,15.2,11.9,15.2,2.7,0,4.1-.8,6.7-3.8l3.3-3.8,2.5,2.6c2.5,2.5,2.6,2.8,2.6,16.6v14h14.3c12.7,0,14.6.2,16,1.8,2.3,2.5,2.1,3.7-.6,5.9-5.8,4.5-6,9-.9,14.5,3.5,3.7,4.5,4.2,9.4,4.6,6.7.5,12.2-1.7,14.9-6.2,2.9-4.8,2.5-8.3-1.7-12.1-3.1-2.9-3.4-3.6-2.5-5.4,1.5-2.7,3.3-3.1,18.6-3.4l13-.2V.5l-40.2-.3-40.3-.2v13.9Z"/>
  </g>
</svg>